<svg width="1840" height="1380" viewBox="0 0 1840 1380" fill="none" xmlns="http://www.w3.org/2000/svg">
<path d="M1057.55 583.381C1057.55 583.381 1031.47 526.263 1015.42 523.797C999.369 521.33 969.114 526.88 964.798 544.782C960.481 562.684 956.781 665.781 958.631 696.653C960.481 727.524 964.181 783.697 959.865 794.816C955.548 805.935 934.562 833.087 930.227 842.356C925.891 851.626 919.108 861.492 921.574 862.725C924.041 863.959 940.71 859.025 962.312 833.087C983.914 807.149 1003.67 802.216 1008.62 794.816C1013.57 787.416 1057.55 583.381 1057.55 583.381Z" fill="white" stroke="#031F43" stroke-width="3.85409" stroke-miterlimit="10" stroke-linecap="round" stroke-linejoin="round"/>
<path d="M535.877 812.834L537.033 884.289L552.006 890.051L579.101 880.839V812.256L535.877 812.834Z" fill="white" stroke="#031F43" stroke-width="3.85409" stroke-miterlimit="10" stroke-linecap="round" stroke-linejoin="round"/>
<path d="M552.004 890.053V813.992" stroke="#031F43" stroke-width="3.85409" stroke-miterlimit="10" stroke-linecap="round" stroke-linejoin="round"/>
<path d="M682.83 779.98L683.986 942.508L698.959 948.269L726.054 939.039V779.402L682.83 779.98Z" fill="white" stroke="#031F43" stroke-width="3.85409" stroke-miterlimit="10" stroke-linecap="round" stroke-linejoin="round"/>
<path d="M698.961 948.269V781.137" stroke="#031F43" stroke-width="3.85409" stroke-miterlimit="10" stroke-linecap="round" stroke-linejoin="round"/>
<path d="M762.355 688.928L763.512 851.436L778.485 857.217L805.579 847.986V688.35L762.355 688.928Z" fill="white" stroke="#031F43" stroke-width="3.85409" stroke-miterlimit="10" stroke-linecap="round" stroke-linejoin="round"/>
<path d="M778.49 857.217V690.084" stroke="#031F43" stroke-width="3.85409" stroke-miterlimit="10" stroke-linecap="round" stroke-linejoin="round"/>
<path d="M856.668 723.111L857.805 885.619L872.797 891.381L899.872 882.17V722.533L856.668 723.111Z" fill="white" stroke="#031F43" stroke-width="3.85409" stroke-miterlimit="10" stroke-linecap="round" stroke-linejoin="round"/>
<path d="M872.805 891.383V724.27" stroke="#031F43" stroke-width="3.85409" stroke-miterlimit="10" stroke-linecap="round" stroke-linejoin="round"/>
<path d="M612.706 677.48L515.795 703.591L521.595 827.789C521.595 827.789 526.24 817.923 541.906 818.501C557.573 819.079 674.795 832.434 678.862 837.078C682.928 841.722 700.907 856.233 700.907 856.233C700.907 856.233 725.284 837.078 725.284 827.789C725.284 818.501 714.839 790.077 714.839 790.077L933.617 750.033L930.129 681.546L821.617 664.145L612.706 677.48Z" fill="#A7CCE9"/>
<path d="M714.84 790.077L687.572 726.234L700.715 855.905" stroke="white" stroke-width="3.85409" stroke-miterlimit="10" stroke-linecap="round" stroke-linejoin="round"/>
<path d="M515.795 703.592C518.107 704.17 687.572 726.216 687.572 726.216L930.148 681.527" stroke="white" stroke-width="3.85409" stroke-miterlimit="10" stroke-linecap="round" stroke-linejoin="round"/>
<path d="M823.718 529.523L775.234 520.369L602.859 545.479L606.81 684.573L666.394 696.482L834.047 670.447L837.863 660.889L823.718 529.523Z" fill="white" stroke="#031F43" stroke-width="3.85409" stroke-miterlimit="10" stroke-linecap="round" stroke-linejoin="round"/>
<path d="M649.959 551.935L664.855 685.017L837.865 660.89L823.721 529.523L649.959 551.935Z" fill="white" stroke="#031F43" stroke-width="3.85409" stroke-miterlimit="10" stroke-linecap="round" stroke-linejoin="round"/>
<path d="M807.294 562.379C812.36 562.379 816.467 558.272 816.467 553.206C816.467 548.14 812.36 544.033 807.294 544.033C802.228 544.033 798.121 548.14 798.121 553.206C798.121 558.272 802.228 562.379 807.294 562.379Z" fill="#031F43"/>
<path d="M810.804 590.668C815.87 590.668 819.976 586.561 819.976 581.495C819.976 576.429 815.87 572.322 810.804 572.322C805.738 572.322 801.631 576.429 801.631 581.495C801.631 586.561 805.738 590.668 810.804 590.668Z" fill="#031F43"/>
<path d="M683.485 561.924L664.166 564.281L672.644 633.773L691.963 631.416L683.485 561.924Z" fill="#031F43"/>
<path d="M691.977 631.416L672.658 633.773L673.753 642.744L693.072 640.387L691.977 631.416Z" fill="#E72A8B"/>
<path d="M693.059 640.391L673.74 642.748L676.564 665.893L695.883 663.536L693.059 640.391Z" fill="#45D62F"/>
<path d="M702.807 559.553L683.488 561.91L691.966 631.402L711.286 629.045L702.807 559.553Z" fill="#F3B63F"/>
<path d="M711.286 629.069L691.967 631.426L693.061 640.397L712.38 638.04L711.286 629.069Z" fill="#45D62F"/>
<path d="M712.386 638.022L693.066 640.379L695.89 663.524L715.209 661.167L712.386 638.022Z" fill="#347CE1"/>
<path d="M722.104 557.204L702.785 559.561L711.263 629.052L730.582 626.695L722.104 557.204Z" fill="#E72A8B"/>
<path d="M730.596 626.715L711.277 629.072L712.372 638.043L731.691 635.686L730.596 626.715Z" fill="#031F43"/>
<path d="M731.675 635.67L712.355 638.027L715.179 661.172L734.498 658.815L731.675 635.67Z" fill="#E72A8B"/>
<path d="M741.43 554.852L722.111 557.209L730.589 626.7L749.909 624.343L741.43 554.852Z" fill="#45D62F"/>
<path d="M749.915 624.344L730.596 626.701L731.69 635.672L751.009 633.315L749.915 624.344Z" fill="#E72A8B"/>
<path d="M751.001 633.321L731.682 635.678L734.505 658.822L753.825 656.465L751.001 633.321Z" fill="#F3B63F"/>
<path d="M760.915 552.481L741.596 554.838L750.074 624.329L769.393 621.972L760.915 552.481Z" fill="#347CE1"/>
<path d="M769.382 621.977L750.062 624.334L751.157 633.305L770.476 630.948L769.382 621.977Z" fill="#F3B63F"/>
<path d="M770.481 630.93L751.162 633.287L753.986 656.432L773.305 654.075L770.481 630.93Z" fill="#031F43"/>
<path d="M780.196 550.112L760.877 552.469L769.355 621.96L788.674 619.603L780.196 550.112Z" fill="#F3B63F"/>
<path d="M788.688 619.623L769.369 621.98L770.464 630.951L789.783 628.594L788.688 619.623Z" fill="#031F43"/>
<path d="M789.77 628.581L770.451 630.938L773.275 654.082L792.594 651.725L789.77 628.581Z" fill="#45D62F"/>
<path d="M649.955 551.933L603.898 547.693" stroke="#031F43" stroke-width="3.85409" stroke-miterlimit="10" stroke-linecap="round" stroke-linejoin="round"/>
<path d="M1012.32 567.021C1012.32 567.021 997.499 524.433 981.447 521.947C965.394 519.48 935.14 525.03 930.823 542.932C926.507 560.835 922.807 663.932 924.657 694.803C926.507 725.674 930.206 781.848 925.89 792.967C921.573 804.086 900.588 831.238 896.252 840.507C891.916 849.776 885.133 859.642 887.6 860.876C890.066 862.109 906.735 857.176 928.337 831.238C949.939 805.3 969.692 800.367 974.644 792.967C979.616 785.567 1012.32 567.021 1012.32 567.021Z" fill="white" stroke="#031F43" stroke-width="3.85409" stroke-miterlimit="10" stroke-linecap="round" stroke-linejoin="round"/>
<path d="M961.076 628.765C961.076 628.765 975.279 677.539 972.196 690.508C969.112 703.477 970.346 738.665 969.112 754.1C967.879 769.536 957.993 808.424 950.593 812.124C943.193 815.823 945.795 814.802 945.795 814.802C945.795 814.802 959.246 819.523 997.517 819.523C1035.79 819.523 1080.24 808.404 1111.12 813.973C1141.99 819.523 1193.84 808.424 1196.93 806.574C1200.01 804.724 1209.28 762.733 1206.81 719.529C1204.35 676.305 1211.75 609.649 1211.75 609.649C1211.75 609.649 1169.78 607.182 1146.92 611.499C1124.09 615.815 1079.01 574.461 1079.01 574.461L1047.52 592.363C1047.52 592.363 1044.44 607.182 1044.44 613.349C1044.44 619.515 1045.06 629.401 1045.06 629.401L1026.54 589.897L961.076 628.765Z" fill="#347CE1" stroke="#031F43" stroke-width="3.85409" stroke-miterlimit="10" stroke-linecap="round" stroke-linejoin="round"/>
<path d="M943.795 571.338L956.764 607.142" stroke="#031F43" stroke-width="3.85409" stroke-miterlimit="10" stroke-linecap="round" stroke-linejoin="round"/>
<path d="M1256.45 795.607L1078.09 801.851L910.318 807.459L910.954 824.301L1081.83 833.647L1086.82 818.674L1257.71 816.188L1256.45 795.607Z" fill="#031F43"/>
<path d="M1111.14 978.967L1292.25 956.498L1291.38 972.107L1114.88 992.688L1111.14 978.967Z" fill="#031F43"/>
<path d="M1096.89 474.427C1096.89 474.427 1061.71 493.563 1045.65 516.399C1029.6 539.234 999.347 570.105 980.211 583.691C961.075 597.277 922.188 614.562 915.385 619.496C908.602 624.429 900.566 641.098 903.649 649.75C906.733 658.403 925.252 678.771 925.252 678.771L922.785 656.553C922.785 656.553 978.958 636.8 993.161 629.381C1007.36 621.981 1040.08 600.977 1047.48 592.343C1054.88 583.691 1078.97 574.441 1078.97 574.441C1078.97 574.441 1083.91 631.231 1085.14 641.117C1086.37 651.003 1207.76 632.426 1211.07 632.465C1213.71 632.503 1218.41 513.469 1202.82 476.432C1193.25 453.635 1185.75 446.023 1170.93 445.406C1156.17 444.79 1098.74 473.811 1096.89 474.427Z" fill="white" stroke="#031F43" stroke-width="3.85409" stroke-miterlimit="10" stroke-linecap="round" stroke-linejoin="round"/>
<path d="M1096.9 474.428C1096.9 474.428 1128.41 499.287 1135.94 563.072C1143.48 626.857 1139.43 626.857 1139.43 626.857" stroke="#031F43" stroke-width="3.85409" stroke-miterlimit="10" stroke-linecap="round" stroke-linejoin="round"/>
<path d="M1235.87 687.713C1235.87 687.713 1272.04 588.548 1270.18 584.809C1268.31 581.071 1251.46 579.818 1251.46 579.818L1246.47 596.66C1246.47 596.66 1187.22 599.146 1157.91 597.913C1128.6 596.66 1081.83 592.305 1081.83 592.305C1081.83 592.305 1082.4 572.784 1078.99 574.442C1075.58 576.099 1070.59 569.239 1063.11 589.184C1055.64 609.128 920.301 1024.5 920.301 1024.5L945.873 1026.99L1068.74 640.327C1068.74 640.327 1131.1 649.057 1163.53 647.804C1195.96 646.552 1230.27 647.188 1230.27 647.188L1119.25 962.144L1141.08 961.527L1235.87 687.713Z" fill="#031F43"/>
<path d="M1055 664.01L1137.32 1066.28L1124.24 1075.01L1114.26 1071.27L1040.06 697.849L1055 664.01Z" fill="#031F43"/>
<path d="M1223 703.379L1239.55 664.973L1316.94 1020.13L1308.21 1023.87L1290.76 1018.26L1223 703.379Z" fill="#031F43"/>
<path d="M1084.48 312.17C1084.48 312.17 1058.78 320.977 1049.12 342.829C1042.13 358.67 1039.24 379.886 1039.24 379.886C1039.24 379.886 1048.29 383.182 1051.59 385.648C1054.88 388.115 1063.11 417.772 1062.3 429.296C1061.47 440.82 1076.31 472.943 1085.37 481.191C1094.43 489.42 1104.31 489.42 1104.31 489.42L1096.08 481.191C1096.08 481.191 1105.14 484.486 1127.38 482.02C1140.46 480.574 1158.1 469.147 1170.39 459.974C1180.01 452.825 1186.19 442.014 1187.64 430.105C1188.49 423.091 1189.04 416.288 1188.31 414.477C1186.67 410.353 1191.61 439.182 1191.61 439.182C1191.61 439.182 1202.32 423.534 1194.07 400.467C1185.85 377.4 1175.13 346.934 1170.2 333.753C1165.27 320.572 1146.34 296.291 1130.02 294.518C1101.38 291.454 1084.48 312.17 1084.48 312.17Z" fill="#031F43"/>
</svg>
