<svg width="1840" height="1380" viewBox="0 0 1840 1380" fill="none" xmlns="http://www.w3.org/2000/svg">
<path d="M1295.26 696.732H654.978V1253.94H1295.26V696.732Z" fill="#A7CCE9"/>
<path d="M1205.42 513.24H762.141C737.359 513.24 717.279 533.32 717.279 558.102V647.748H1250.28V558.102C1250.28 533.32 1230.2 513.24 1205.42 513.24Z" fill="#A7CCE9"/>
<path d="M971.166 786.049V1188.53" stroke="#031F43" stroke-width="3.85409" stroke-miterlimit="10" stroke-linecap="round" stroke-linejoin="round"/>
<path d="M717.277 647.748L654.205 679.698H1294.5L1250.28 647.748H717.277Z" fill="#A7CCE9" stroke="#031F43" stroke-width="3.85409" stroke-miterlimit="10" stroke-linecap="round" stroke-linejoin="round"/>
<path d="M1295.26 679.697H654.978V697.233H1295.26V679.697Z" fill="#A7CCE9" stroke="#031F43" stroke-width="3.85409" stroke-miterlimit="10" stroke-linecap="round" stroke-linejoin="round"/>
<path d="M722.751 749.879C730.116 749.879 736.086 743.909 736.086 736.544C736.086 729.179 730.116 723.209 722.751 723.209C715.386 723.209 709.416 729.179 709.416 736.544C709.416 743.909 715.386 749.879 722.751 749.879Z" stroke="#031F43" stroke-width="3.85409" stroke-miterlimit="10" stroke-linecap="round" stroke-linejoin="round"/>
<path d="M722.751 729.82V744.08" stroke="#031F43" stroke-width="3.85409" stroke-miterlimit="10" stroke-linecap="round" stroke-linejoin="round"/>
<path d="M771.602 749.879C778.967 749.879 784.937 743.909 784.937 736.544C784.937 729.179 778.967 723.209 771.602 723.209C764.237 723.209 758.267 729.179 758.267 736.544C758.267 743.909 764.237 749.879 771.602 749.879Z" stroke="#031F43" stroke-width="3.85409" stroke-miterlimit="10" stroke-linecap="round" stroke-linejoin="round"/>
<path d="M771.602 729.82V744.08" stroke="#031F43" stroke-width="3.85409" stroke-miterlimit="10" stroke-linecap="round" stroke-linejoin="round"/>
<path d="M816.83 749.879C824.195 749.879 830.165 743.909 830.165 736.544C830.165 729.179 824.195 723.209 816.83 723.209C809.465 723.209 803.495 729.179 803.495 736.544C803.495 743.909 809.465 749.879 816.83 749.879Z" stroke="#031F43" stroke-width="3.85409" stroke-miterlimit="10" stroke-linecap="round" stroke-linejoin="round"/>
<path d="M816.83 729.82V744.08" stroke="#031F43" stroke-width="3.85409" stroke-miterlimit="10" stroke-linecap="round" stroke-linejoin="round"/>
<path d="M675.074 699.449V1253.71" stroke="#031F43" stroke-width="3.85409" stroke-miterlimit="10" stroke-linecap="round" stroke-linejoin="round"/>
<path d="M1268.91 699.449V1253.71" stroke="#031F43" stroke-width="3.85409" stroke-miterlimit="10" stroke-linecap="round" stroke-linejoin="round"/>
<path d="M676.711 786.859H1268.1" stroke="#031F43" stroke-width="3.85409" stroke-miterlimit="10" stroke-linecap="round" stroke-linejoin="round"/>
<path d="M676.711 1189.36H1268.1" stroke="#031F43" stroke-width="3.85409" stroke-miterlimit="10" stroke-linecap="round" stroke-linejoin="round"/>
<path d="M676.711 1042.56H1268.1" stroke="#031F43" stroke-width="3.85409" stroke-miterlimit="10" stroke-linecap="round" stroke-linejoin="round"/>
<path d="M932.278 817.346H709.242V828.156H932.278V817.346Z" stroke="#031F43" stroke-width="3.85409" stroke-miterlimit="10" stroke-linecap="round" stroke-linejoin="round"/>
<path d="M932.278 1072.33H709.242V1083.14H932.278V1072.33Z" stroke="#031F43" stroke-width="3.85409" stroke-miterlimit="10" stroke-linecap="round" stroke-linejoin="round"/>
<path d="M1233.11 817.346H1010.07V828.156H1233.11V817.346Z" stroke="#031F43" stroke-width="3.85409" stroke-miterlimit="10" stroke-linecap="round" stroke-linejoin="round"/>
<path d="M1233.11 1072.33H1010.07V1083.14H1233.11V1072.33Z" stroke="#031F43" stroke-width="3.85409" stroke-miterlimit="10" stroke-linecap="round" stroke-linejoin="round"/>
<path d="M1187.4 1216.17H759.556C739.013 1216.17 722.344 1232.82 722.344 1253.38H1224.59C1224.61 1232.82 1207.94 1216.17 1187.4 1216.17Z" stroke="#031F43" stroke-width="3.85409" stroke-miterlimit="10" stroke-linecap="round" stroke-linejoin="round"/>
<path d="M866.565 670.121C866.565 670.121 848.065 677.463 815.537 677.463C786.516 677.463 760.057 670.121 760.057 670.121V603.734H866.565V670.121V670.121Z" fill="white" stroke="#031F43" stroke-width="3.85409" stroke-miterlimit="10" stroke-linecap="round" stroke-linejoin="round"/>
<path d="M812.629 611.75C841.886 611.75 865.604 608.609 865.604 604.735C865.604 600.861 841.886 597.721 812.629 597.721C783.372 597.721 759.655 600.861 759.655 604.735C759.655 608.609 783.372 611.75 812.629 611.75Z" fill="white" stroke="#031F43" stroke-width="3.85409" stroke-miterlimit="10" stroke-linecap="round" stroke-linejoin="round"/>
<path d="M758.784 620.056C758.784 620.056 741.884 619.093 741.557 624.527C741.229 629.961 767.379 635.049 767.379 635.049" stroke="#031F43" stroke-width="3.85409" stroke-miterlimit="10" stroke-linecap="round" stroke-linejoin="round"/>
<path d="M866.374 620.056C866.374 620.056 883.274 619.093 883.602 624.527C883.93 629.942 857.78 635.049 857.78 635.049" stroke="#031F43" stroke-width="3.85409" stroke-miterlimit="10" stroke-linecap="round" stroke-linejoin="round"/>
<path d="M769.614 607.009C769.614 607.009 758.783 588.664 762.715 576.446C766.665 564.21 769.035 555.923 769.825 546.847C770.172 542.974 769.787 537 769.228 531.431C768.997 529.099 772.176 528.174 773.217 530.294C774.316 532.529 775.568 534.919 776.936 537.385C782.852 548.042 784.837 557.118 784.837 557.118C784.837 557.118 795.089 526.729 788.383 510.946C781.677 495.164 772.196 480.557 770.616 465.564C769.729 457.22 771.907 436.774 774.026 420.279C774.489 416.694 779.634 416.579 780.232 420.144C782.255 432.111 785.55 446.005 790.753 455.293C796.746 465.988 812.066 481.732 812.066 481.732C812.066 481.732 810.486 468.32 811.276 460.419C811.411 458.993 811.623 457.316 811.874 455.524C812.336 452.152 817.038 451.824 818.002 455.081C819.601 460.535 821.971 466.296 825.536 470.979C835.403 484.006 836.135 494.74 834.555 503.816C832.975 512.892 842.841 520.389 844.421 531.45C846.002 542.492 836.521 551.568 844.036 559.469C851.532 567.37 861.765 572.207 861.379 577.333C860.994 582.459 863.596 567.794 856.292 560.163C846.31 549.757 857.063 540.526 857.063 540.526C857.063 540.526 857.564 554.131 870.88 563.805C879.05 569.76 873.25 587.084 871.265 592.614C869.3 598.145 855.868 604.851 855.868 604.851C855.868 604.851 826.076 610.362 816.017 610.478C797.613 610.69 769.614 607.009 769.614 607.009Z" fill="#E72A8B"/>
<path d="M803.59 600.207C803.59 600.207 795.015 584.135 794.475 577.16C793.936 570.184 795.554 558.93 795.554 558.93L801.991 572.323C801.991 572.323 804.669 564.826 807.348 548.736C810.026 532.664 812.165 526.767 812.165 517.113C812.165 507.458 800.912 491.387 800.912 491.387C800.912 491.387 815.923 501.562 821.28 519.252C826.638 536.942 827.177 550.335 825.558 563.188C823.959 576.042 826.792 604.581 826.792 604.581L803.59 600.207Z" fill="#F3B63F"/>
<path d="M834.307 608.897C864.16 608.897 888.361 605.325 888.361 600.919C888.361 596.513 864.16 592.941 834.307 592.941C804.454 592.941 780.253 596.513 780.253 600.919C780.253 605.325 804.454 608.897 834.307 608.897Z" fill="white" stroke="#031F43" stroke-width="3.85409" stroke-miterlimit="10" stroke-linecap="round" stroke-linejoin="round"/>
<path d="M827.852 599.647C827.852 599.647 826.253 586.582 833.267 586.582C840.282 586.582 840.918 599.012 840.918 599.012" stroke="#031F43" stroke-width="3.85409" stroke-miterlimit="10" stroke-linecap="round" stroke-linejoin="round"/>
<path d="M885.495 995.694C885.495 995.694 882.855 1003.06 902.761 1011.07C922.648 1019.07 936.831 1022.96 936.831 1022.96L939.799 990.953C939.799 990.953 916.925 976.096 907.559 979.526C898.194 982.937 885.495 995.694 885.495 995.694Z" fill="#031F43"/>
<path d="M934.093 991.186C934.093 991.186 935.924 1018.16 931.569 1039.67C927.214 1061.18 913.513 1094.32 911.894 1097.98C910.275 1101.64 911.2 1107.58 916.692 1107.14C922.184 1106.69 940.009 1100.74 950.762 1083.59C961.515 1066.44 967.913 1047.69 975.679 1033.06C983.445 1018.43 992.599 1007.45 994.198 1003.56C995.797 999.665 993.967 992.573 993.967 992.573L934.093 991.186Z" fill="white" stroke="#031F43" stroke-width="3.85409" stroke-miterlimit="10" stroke-linecap="round" stroke-linejoin="round"/>
<path d="M1011.83 1067.55L1006.11 1000.09C1006.11 1000.09 991.482 1002.38 987.936 1007.22C986.259 1009.53 982.579 1016.35 978.513 1024.58C975.95 1022.9 970.862 1020.32 961.054 1017.45C943.903 1012.42 929.72 1014.02 929.72 1014.02L928.583 1044.66C928.583 1044.66 939.779 1043.97 950.532 1046.26C956.699 1047.57 962.46 1049.86 966.295 1051.58C966.141 1051.94 966.006 1052.31 965.852 1052.68C961.825 1062.97 953.904 1075.69 946.35 1085.51C944.867 1081.72 942.438 1077.54 938.411 1075.09C929.72 1069.83 921.26 1069.6 921.26 1069.6L914.862 1089.48C914.862 1089.48 924.69 1090.39 929.72 1095.21C931.165 1096.59 932.321 1098.04 933.246 1099.43C923.708 1105.69 908.002 1103.9 908.002 1103.9C908.002 1103.9 910.584 1122.53 910.584 1123.21C910.584 1123.9 919.892 1124.48 930.857 1120.59C941.822 1116.69 957.161 1108.23 963.096 1101.14C969.032 1094.05 970.226 1077.46 973.194 1066.71C976.162 1055.95 982.521 1029.57 984.12 1029.34C985.72 1029.11 983.427 1073.47 983.427 1073.47L1011.83 1067.55Z" fill="#45D62F" stroke="#031F43" stroke-width="3.85409" stroke-linecap="round" stroke-linejoin="round"/>
<path d="M989.571 993.401C989.571 993.401 986.931 1000.76 1006.84 1008.78C1026.72 1016.78 1040.91 1020.67 1040.91 1020.67L1043.88 988.66C1043.88 988.66 1021 973.803 1011.64 977.233C1002.27 980.663 989.571 993.401 989.571 993.401Z" fill="#031F43"/>
<path d="M1038.15 988.873C1038.15 988.873 1039.98 1015.85 1035.63 1037.36C1031.29 1058.84 1017.57 1092.01 1015.95 1095.67C1014.36 1099.33 1015.26 1105.27 1020.75 1104.82C1026.25 1104.38 1044.07 1098.43 1054.82 1081.27C1065.58 1064.12 1071.97 1045.37 1079.74 1030.75C1087.51 1016.12 1096.66 1005.14 1098.26 1001.24C1099.86 997.352 1098.03 990.261 1098.03 990.261L1038.15 988.873Z" fill="white" stroke="#031F43" stroke-width="3.85409" stroke-miterlimit="10" stroke-linecap="round" stroke-linejoin="round"/>
<path d="M1115.91 1065.26L1110.19 997.795C1110.19 997.795 1095.56 1000.09 1092.01 1004.92C1090.34 1007.24 1086.66 1014.06 1082.59 1022.29C1080.03 1020.61 1074.94 1018.03 1065.13 1015.16C1047.98 1010.13 1033.8 1011.73 1033.8 1011.73L1032.66 1042.37C1032.66 1042.37 1043.86 1041.67 1054.61 1043.97C1060.78 1045.28 1066.54 1047.57 1070.37 1049.29C1070.22 1049.65 1070.08 1050.02 1069.93 1050.38C1065.9 1060.67 1057.98 1073.39 1050.43 1083.22C1048.95 1079.42 1046.52 1075.24 1042.49 1072.8C1033.8 1067.53 1025.34 1067.3 1025.34 1067.3L1018.94 1087.19C1018.94 1087.19 1028.77 1088.1 1033.8 1092.91C1035.24 1094.3 1036.4 1095.75 1037.33 1097.13C1027.79 1103.4 1012.08 1101.6 1012.08 1101.6C1012.08 1101.6 1014.66 1120.24 1014.66 1120.91C1014.66 1121.61 1023.97 1122.19 1034.94 1118.29C1045.9 1114.4 1061.24 1105.94 1067.18 1098.85C1073.11 1091.76 1074.31 1075.17 1077.27 1064.41C1080.24 1053.66 1086.6 1027.28 1088.2 1027.05C1089.8 1026.82 1087.51 1071.18 1087.51 1071.18L1115.91 1065.26Z" fill="#45D62F" stroke="#031F43" stroke-width="3.85409" stroke-linecap="round" stroke-linejoin="round"/>
<path d="M1209.93 528.27L1153.06 531.546C1152.87 526.189 1152.74 522.72 1152.74 522.72C1152.74 522.72 1052.84 520.581 1048.58 525.707C1044.32 530.833 1042.18 547.483 1042.18 547.483C1042.18 547.483 1044.32 576.08 1042.18 581.63C1040.04 587.18 1028.09 596.14 1017 603.829C1005.9 611.518 953.518 658.596 942.418 679.948C931.319 701.299 926.925 725.503 921.375 765.624C915.825 805.745 903.454 909.054 898.752 930.83C894.05 952.605 885.513 995.713 885.513 995.713C885.513 995.713 891.911 986.753 913.262 991.879C934.614 997.005 969.609 1005.54 987.974 1007.24C1006.34 1008.95 1014.88 1005.1 1014.88 1005.1C1014.88 1005.1 1015.11 999.992 1015.49 991.551C1025.09 992.707 1047 997.159 1068.66 1000.82C1096.41 1005.52 1130.32 987.292 1130.32 987.292C1130.32 987.292 1122.66 939.945 1118.4 913.91C1114.14 887.876 1106.2 786.244 1107.07 780.27C1107.91 774.296 1163.86 734.888 1181.8 719.51C1199.72 704.151 1212.53 671.276 1216.37 637.977C1220.18 604.677 1209.93 528.27 1209.93 528.27Z" fill="#347CE1" stroke="#031F43" stroke-width="3.85409" stroke-miterlimit="10" stroke-linecap="round" stroke-linejoin="round"/>
<path d="M1111.38 184.388C1111.38 184.388 1120.48 146.348 1165.9 159.163C1196.64 167.854 1213 189.456 1202.13 237.228C1191.24 284.999 1185.82 294.5 1188.68 305.869C1191.53 317.239 1204.29 322.268 1204.29 322.268C1204.29 322.268 1186.29 336.663 1151.52 332.077C1134.22 329.784 1110.13 317.894 1103.27 316.931C1096.41 315.986 1075.12 314.811 1066.85 306.525C1058.56 298.238 1059.04 290.202 1059.04 290.202C1059.04 290.202 1072.53 290.202 1075.6 274.593C1078.66 258.984 1071.82 217.591 1086.23 205.759C1100.65 193.946 1111.38 184.388 1111.38 184.388Z" fill="#031F43"/>
<path d="M1153.89 267.541C1153.89 267.541 1150.17 287.891 1149.69 298.759C1149.21 309.628 1150.79 322.134 1156.48 324.967C1162.16 327.8 1160.97 327.337 1154.1 343.409C1147.24 359.5 1131.67 408.678 1120.07 409.391C1108.49 410.104 1087.16 333.003 1086.93 332.29C1086.7 331.577 1097.33 327.087 1099.47 312.653C1101.59 298.22 1103.5 277.176 1103.5 277.176L1153.89 267.541Z" fill="white" stroke="#031F43" stroke-width="3.85409" stroke-miterlimit="10" stroke-linecap="round" stroke-linejoin="round"/>
<path d="M1161.45 266.077C1161.45 266.077 1171.39 261.819 1170.91 256.134C1170.43 250.449 1163.82 251.162 1163.82 251.162C1163.82 251.162 1170.91 235.784 1171.39 224.203C1171.87 212.621 1155.78 193.929 1142.77 194.391C1129.77 194.854 1106.81 195.817 1102.32 207.881C1097.83 219.944 1094.98 249.485 1097.12 267.484C1098.78 281.436 1102.32 289.953 1113.91 293.037C1125.49 296.12 1137.96 288.065 1137.96 288.065" fill="white"/>
<path d="M1161.45 266.077C1161.45 266.077 1171.39 261.819 1170.91 256.134C1170.43 250.449 1163.82 251.162 1163.82 251.162C1163.82 251.162 1170.91 235.784 1171.39 224.203C1171.87 212.621 1155.78 193.929 1142.77 194.391C1129.77 194.854 1106.81 195.817 1102.32 207.881C1097.83 219.944 1094.98 249.485 1097.12 267.484C1098.78 281.436 1102.32 289.953 1113.91 293.037C1125.49 296.12 1137.96 288.065 1137.96 288.065" stroke="#031F43" stroke-width="3.85409" stroke-miterlimit="10" stroke-linecap="round" stroke-linejoin="round"/>
<path d="M1102.73 215.49C1103.02 214.912 1117.99 212.253 1122.83 221.792C1127.66 231.33 1124.74 241.158 1121.21 245.706C1117.68 250.254 1116.66 251.873 1116.66 251.873C1116.66 251.873 1120.03 255.399 1126.05 257.153" stroke="#031F43" stroke-width="3.85409" stroke-miterlimit="10" stroke-linecap="round" stroke-linejoin="round"/>
<path d="M1105.72 224.315C1105.72 224.315 1116.74 223.217 1119.74 229.923" stroke="#031F43" stroke-width="3.85409" stroke-miterlimit="10" stroke-linecap="round" stroke-linejoin="round"/>
<path d="M1141.79 239.039C1141.79 239.039 1150.8 234.222 1156.51 243.24" stroke="#031F43" stroke-width="3.85409" stroke-miterlimit="10" stroke-linecap="round" stroke-linejoin="round"/>
<path d="M1108.82 224.703C1108.82 224.703 1109.32 230.118 1112.92 231.525C1116.53 232.932 1118.43 228.018 1118.43 228.018" stroke="#031F43" stroke-width="3.85409" stroke-miterlimit="10" stroke-linecap="round" stroke-linejoin="round"/>
<path d="M1145.18 237.844C1145.18 237.844 1144.18 242.546 1148.19 244.762C1152.2 246.978 1153.39 240.85 1153.39 240.85" stroke="#031F43" stroke-width="3.85409" stroke-miterlimit="10" stroke-linecap="round" stroke-linejoin="round"/>
<path d="M1142.79 229.52C1142.79 229.52 1154.41 227.42 1159.02 235.629" stroke="#031F43" stroke-width="3.85409" stroke-miterlimit="10" stroke-linecap="round" stroke-linejoin="round"/>
<path d="M1110.42 263.993C1110.73 263.801 1126.36 269.1 1126.36 269.1C1126.36 269.1 1121.04 274.92 1115.24 274.11C1109.42 273.301 1110.42 263.993 1110.42 263.993Z" stroke="#031F43" stroke-width="3.85409" stroke-miterlimit="10" stroke-linecap="round" stroke-linejoin="round"/>
<path d="M1119.92 178.818C1119.92 178.818 1099.65 178.645 1091.36 194.023C1083.07 209.401 1087.18 220.905 1087.18 220.905C1087.18 220.905 1096.64 204.352 1110.82 210.499C1125.01 216.646 1138.49 224.933 1151.04 219.248C1163.58 213.563 1165.47 209.304 1165.47 209.304C1165.47 209.304 1152.93 194.158 1140.88 186.604C1128.84 179.05 1119.92 178.818 1119.92 178.818Z" fill="#031F43"/>
<path d="M1168.17 233.45C1168.17 233.45 1175.82 221.464 1175.34 212.118C1174.82 201.789 1170.75 190.94 1156.09 183.598C1141.42 176.275 1125.49 181.651 1125.72 180.938C1125.95 180.225 1150.85 188.203 1159.6 201.442C1168.35 214.681 1168.17 233.45 1168.17 233.45Z" fill="#E72A8B"/>
<path d="M1056.19 341.943C1056.19 341.943 1012.77 353.66 1007.57 362.351C1002.37 371.041 983.406 458.703 981.961 475.218C980.708 489.555 979.013 500.578 979.032 517.69C979.051 529.059 978.492 539.465 983.695 548.156C988.898 556.847 992.964 557.599 1001.5 557.271C1014.3 556.77 1037.96 554.226 1037.96 554.226C1037.96 554.226 1057.19 543.435 1058.29 538.425C1059.41 533.414 1069.43 530.909 1073.32 532.027C1077.21 533.145 1126.74 529.252 1135.37 529.252C1144.01 529.252 1182.39 531.198 1182.39 531.198C1182.39 531.198 1220.51 562.089 1241.11 560.142C1261.69 558.196 1261.15 532.875 1261.98 528.134C1262.81 523.394 1263.37 506.147 1263.1 500.597C1262.83 495.028 1258.65 477.511 1258.65 464.985C1258.65 452.459 1243.9 389.58 1241.4 377.613C1238.89 365.646 1238.07 361.194 1235 359.807C1231.94 358.419 1201.61 339.496 1184.09 340.883C1176.25 341.5 1121.48 417.059 1119.82 413.186C1091.51 347.185 1056.19 341.943 1056.19 341.943Z" fill="#F3B63F"/>
<path d="M1069.86 508.421C1069.86 508.421 1061.03 499.403 1055.29 503.295C1049.54 507.188 1046.27 511.505 1045.25 513.547C1045.05 513.933 1044.67 514.26 1044.15 514.53C1040.31 516.611 1037.83 520.523 1038.18 524.878L1038.23 525.476C1038.7 531.103 1043.51 535.439 1049.16 535.149C1052.17 534.995 1055.38 534.976 1058.18 535.265C1065.96 536.094 1090.78 544.9 1097.76 545.305C1104.74 545.71 1113.54 541.2 1119.09 538.136C1124.62 535.053 1132.21 533.627 1136.32 532.182C1140.42 530.756 1141.23 527.268 1141.23 527.268C1141.23 527.268 1144.72 525.418 1144.51 522.759C1144.3 520.099 1137.34 516.399 1137.34 516.399C1137.34 516.399 1098.38 523.992 1092.02 522.547C1085.66 521.101 1069.86 508.421 1069.86 508.421Z" fill="white" stroke="#031F43" stroke-width="3.85409" stroke-miterlimit="10" stroke-linecap="round" stroke-linejoin="round"/>
<path d="M1066.17 514.76C1066.17 514.76 1087.91 523.779 1089.95 525.629C1092 527.479 1093.85 528.5 1093.85 528.5L1134.66 524.203L1136.51 520.927C1136.51 520.927 1156.46 506.532 1157.05 505.433C1157.63 504.316 1066.17 514.76 1066.17 514.76Z" fill="white" stroke="#031F43" stroke-width="3.85409" stroke-miterlimit="10" stroke-linecap="round" stroke-linejoin="round"/>
<path d="M1047.52 509.539C1047.52 509.539 1034.26 506.225 1022.12 507.535C1015.17 508.287 1004.32 509.481 1004.32 509.481" stroke="#031F43" stroke-width="3.85409" stroke-miterlimit="10" stroke-linecap="round" stroke-linejoin="round"/>
<path d="M1191.89 468.781C1191.89 468.781 1200.49 478.32 1207.74 481.654C1214.98 484.988 1225.27 484.718 1236.68 491.944C1248.09 499.171 1249.76 503.083 1249.76 503.083" stroke="#031F43" stroke-width="3.85409" stroke-miterlimit="10" stroke-linecap="round" stroke-linejoin="round"/>
<path d="M1165.05 495.973C1165.05 495.973 1165.13 502.39 1170.16 511.736C1176 522.585 1185.19 532.317 1185.19 532.317" stroke="#031F43" stroke-width="3.85409" stroke-miterlimit="10" stroke-linecap="round" stroke-linejoin="round"/>
<path d="M1143.39 468.434C1143.39 468.434 1136.74 470.419 1126.68 470.939C1116.62 471.479 1102.98 469.147 1102.98 469.147L1094.9 426.059L1149.67 426.328L1143.39 468.434Z" fill="white" stroke="#031F43" stroke-width="3.85409" stroke-miterlimit="10" stroke-linecap="round" stroke-linejoin="round"/>
<path d="M1144.8 434.268C1144.8 434.268 1155.95 425.153 1165.3 431.454C1174.65 437.756 1155.45 460.572 1140.56 462.846" stroke="#031F43" stroke-width="3.85409" stroke-miterlimit="10" stroke-linecap="round" stroke-linejoin="round"/>
<path d="M1122.93 429.835C1137.7 429.835 1149.67 428.179 1149.67 426.135C1149.67 424.092 1137.7 422.436 1122.93 422.436C1108.15 422.436 1096.18 424.092 1096.18 426.135C1096.18 428.179 1108.15 429.835 1122.93 429.835Z" fill="white" stroke="#031F43" stroke-width="3.85409" stroke-miterlimit="10" stroke-linecap="round" stroke-linejoin="round"/>
<path d="M1162.68 429.451C1162.68 429.451 1154.74 429.798 1153.91 433.671C1153.06 437.545 1153.57 440.763 1153.57 440.763C1153.57 440.763 1149.52 445.658 1150.19 448.529C1150.87 451.4 1151.21 453.424 1151.21 453.424C1151.21 453.424 1148.42 453.636 1147.67 458.993C1147.32 461.498 1144.97 467.26 1148.02 471.153C1151.06 475.026 1152.91 477.57 1152.91 477.57C1152.91 477.57 1152.06 482.811 1157.13 487.186C1162.2 491.579 1165.07 495.954 1165.07 495.954C1165.07 495.954 1177.23 501.195 1184.32 496.455C1191.41 491.714 1192.26 469.437 1191.91 468.763C1191.57 468.089 1191.57 447.334 1190.22 443.788C1188.87 440.243 1179.25 432.978 1179.25 432.978C1179.25 432.978 1181.74 423.188 1177.73 421.338C1166.5 416.097 1158.09 427.698 1158.09 427.698" fill="white"/>
<path d="M1162.68 429.451C1162.68 429.451 1154.74 429.798 1153.91 433.671C1153.06 437.545 1153.57 440.763 1153.57 440.763C1153.57 440.763 1149.52 445.658 1150.19 448.529C1150.87 451.4 1151.21 453.424 1151.21 453.424C1151.21 453.424 1148.42 453.636 1147.67 458.993C1147.32 461.498 1144.97 467.26 1148.02 471.153C1151.06 475.026 1152.91 477.57 1152.91 477.57C1152.91 477.57 1152.06 482.811 1157.13 487.186C1162.2 491.579 1165.07 495.954 1165.07 495.954C1165.07 495.954 1177.23 501.195 1184.32 496.455C1191.41 491.714 1192.26 469.437 1191.91 468.763C1191.57 468.089 1191.57 447.334 1190.22 443.788C1188.87 440.243 1179.25 432.978 1179.25 432.978C1179.25 432.978 1181.74 423.188 1177.73 421.338C1166.5 416.097 1158.09 427.698 1158.09 427.698" stroke="#031F43" stroke-width="3.85409" stroke-miterlimit="10" stroke-linecap="round" stroke-linejoin="round"/>
<path d="M1154.59 438.738C1154.59 438.738 1165.57 440.318 1171.14 443.864C1176.71 447.41 1178.31 450.011 1178.31 450.011" stroke="#031F43" stroke-width="3.85409" stroke-miterlimit="10" stroke-linecap="round" stroke-linejoin="round"/>
<path d="M1151.46 450.919C1151.96 450.418 1169.65 460.015 1169.65 460.015" stroke="#031F43" stroke-width="3.85409" stroke-miterlimit="10" stroke-linecap="round" stroke-linejoin="round"/>
<path d="M1148.17 462.613C1148.69 462.132 1164.36 471.69 1164.36 471.69" stroke="#031F43" stroke-width="3.85409" stroke-miterlimit="10" stroke-linecap="round" stroke-linejoin="round"/>
<path d="M1162.68 429.449C1162.68 429.449 1174.49 428.948 1179.21 432.995" stroke="#031F43" stroke-width="3.85409" stroke-miterlimit="10" stroke-linecap="round" stroke-linejoin="round"/>
<path d="M1111.76 517.816C1137.14 515.582 1157.38 510.032 1156.97 505.42C1156.57 500.809 1135.67 498.882 1110.29 501.116C1084.91 503.351 1064.66 508.901 1065.07 513.512C1065.47 518.124 1086.38 520.051 1111.76 517.816Z" fill="white" stroke="#031F43" stroke-width="3.85409" stroke-miterlimit="10" stroke-linecap="round" stroke-linejoin="round"/>
<path d="M1047.29 605.102C1047.29 605.102 1072.47 613.214 1078.02 625.586" stroke="#031F43" stroke-width="3.85409" stroke-miterlimit="10" stroke-linecap="round" stroke-linejoin="round"/>
<path d="M1155.99 323.329C1155.99 323.329 1161.43 320.014 1176.09 328.763C1190.76 337.512 1212.51 356.667 1212.51 356.667C1212.51 356.667 1180.81 350.982 1174.9 357.611C1168.98 364.24 1119.4 415.731 1119.4 415.731C1119.4 415.731 1118.84 399.004 1130.21 374.877C1141.56 350.751 1159.77 329.226 1159.77 329.226L1155.99 323.329Z" fill="#F3B63F" stroke="#031F43" stroke-width="3.85409" stroke-miterlimit="10" stroke-linecap="round" stroke-linejoin="round"/>
<path d="M1099.97 307.256C1099.97 307.256 1103.5 347.455 1109.88 372.988C1116.26 398.521 1118.16 415.807 1117.68 414.843C1117.2 413.899 1107.05 394.975 1094.5 377.94C1081.96 360.905 1062.09 345.527 1062.09 345.527C1062.09 345.527 1057.83 350.249 1050.26 352.388C1042.68 354.508 1031.81 356.878 1031.81 356.878C1031.81 356.878 1059.83 334.89 1065.94 324.831C1074.15 311.322 1092.86 305.561 1092.86 305.561L1099.97 307.256Z" fill="#F3B63F" stroke="#031F43" stroke-width="3.85409" stroke-miterlimit="10" stroke-linecap="round" stroke-linejoin="round"/>
<path d="M1015.45 991.551C1015.45 991.551 1011.23 758.957 1013.62 738.665C1016.01 718.354 1069.66 638.555 1080.39 627.205C1091.15 615.854 1125.87 610.285 1125.87 610.285" stroke="#031F43" stroke-width="3.85409" stroke-miterlimit="10" stroke-linecap="round" stroke-linejoin="round"/>
</svg>
