<svg width="1840" height="1380" viewBox="0 0 1840 1380" fill="none" xmlns="http://www.w3.org/2000/svg">
<path d="M1049.12 560.586C1049.12 560.586 1052.12 412.184 1057.58 387.383C1067.58 341.963 1109.92 342.734 1136.88 341.192C1163.83 339.65 1205.38 348.881 1215.4 395.072C1225.4 441.264 1224.63 608.3 1224.63 608.3" fill="white"/>
<path d="M1049.12 560.586C1049.12 560.586 1052.12 412.184 1057.58 387.383C1067.58 341.963 1109.92 342.734 1136.88 341.192C1163.83 339.65 1205.38 348.881 1215.4 395.072C1225.4 441.264 1224.63 608.3 1224.63 608.3" stroke="#031F43" stroke-width="3.85409" stroke-miterlimit="10" stroke-linecap="round" stroke-linejoin="round"/>
<path d="M1079.87 269.661C1079.87 269.661 1076.23 261.027 1067.39 254.668C1058.52 248.309 1051.05 245.804 1049.45 239.001C1047.85 232.199 1044.9 257.405 1046.94 267.387C1048.98 277.388 1056.25 294.866 1058.06 301.226C1059.87 307.585 1058.97 310.764 1065.56 313.482C1072.15 316.199 1078.74 319.841 1078.95 324.601C1079.18 329.36 1075.77 335.951 1086.68 347.301C1097.58 358.652 1109.17 359.789 1109.17 359.789C1109.17 359.789 1102.81 384.32 1140.27 388.848C1177.73 393.396 1169.33 360.463 1169.33 360.463C1169.33 360.463 1184.76 359.095 1195.44 350.018C1206.11 340.942 1211.34 319.359 1213.61 311.863C1215.89 304.367 1223.61 297.776 1235.19 289.837C1246.78 281.897 1246.1 233.297 1246.1 233.297C1246.1 233.297 1232.01 250.564 1224.52 252.818C1217.02 255.092 1205.67 266.211 1205.67 266.211C1205.67 266.211 1176.61 232.603 1155.93 231.235C1135.26 229.867 1120.96 239.868 1110.07 242.817C1099.16 245.765 1086.91 250.544 1083.96 255.535C1081.01 260.584 1079.87 269.661 1079.87 269.661Z" fill="white" stroke="#031F43" stroke-width="3.85409" stroke-miterlimit="10" stroke-linecap="round" stroke-linejoin="round"/>
<path d="M1114.03 345.777C1128.66 345.777 1140.52 333.914 1140.52 319.28C1140.52 304.646 1128.66 292.783 1114.03 292.783C1099.39 292.783 1087.53 304.646 1087.53 319.28C1087.53 333.914 1099.39 345.777 1114.03 345.777Z" fill="#45D62F" stroke="#031F43" stroke-width="3.85409" stroke-linecap="round" stroke-linejoin="round"/>
<path d="M1173.18 345.777C1187.82 345.777 1199.68 333.914 1199.68 319.28C1199.68 304.646 1187.82 292.783 1173.18 292.783C1158.55 292.783 1146.69 304.646 1146.69 319.28C1146.69 333.914 1158.55 345.777 1173.18 345.777Z" fill="#45D62F" stroke="#031F43" stroke-width="3.85409" stroke-linecap="round" stroke-linejoin="round"/>
<path d="M1199.6 436.926C1199.6 436.926 1184.79 413.975 1166.27 416.48C1147.75 418.985 1132.7 436.849 1130.46 466.718C1129.48 479.957 1137.42 515.357 1137.42 515.357L1140.66 505.298L1145.38 518.055L1146.38 509.229L1153.09 522.892L1155.4 512.389L1160.22 522.198C1160.22 522.198 1159.16 500.249 1160.08 485.411C1161.01 470.572 1162.57 460.552 1162.57 460.552C1162.57 460.552 1164.88 470.38 1165.57 476.084C1166.27 481.788 1168.25 503.101 1168.25 503.101C1168.25 503.101 1171.74 483.715 1172.72 470.958C1173.44 461.708 1172.51 437.042 1172.51 437.042" fill="white"/>
<path d="M1199.6 436.926C1199.6 436.926 1184.79 413.975 1166.27 416.48C1147.75 418.985 1132.7 436.849 1130.46 466.718C1129.48 479.957 1137.42 515.357 1137.42 515.357L1140.66 505.298L1145.38 518.055L1146.38 509.229L1153.09 522.892L1155.4 512.389L1160.22 522.198C1160.22 522.198 1159.16 500.249 1160.08 485.411C1161.01 470.572 1162.57 460.552 1162.57 460.552C1162.57 460.552 1164.88 470.38 1165.57 476.084C1166.27 481.788 1168.25 503.101 1168.25 503.101C1168.25 503.101 1171.74 483.715 1172.72 470.958C1173.44 461.708 1172.51 437.042 1172.51 437.042" stroke="#031F43" stroke-width="3.85409" stroke-miterlimit="10" stroke-linecap="round" stroke-linejoin="round"/>
<path d="M1155.13 512.891C1155.13 512.891 1152.59 499.787 1152.72 486.549C1152.86 473.31 1154.01 466.045 1154.01 466.045" stroke="#031F43" stroke-width="3.85409" stroke-miterlimit="10" stroke-linecap="round" stroke-linejoin="round"/>
<path d="M1146.96 510.618C1146.96 510.618 1144.42 497.514 1144.55 484.275C1144.69 471.036 1145.84 463.771 1145.84 463.771" stroke="#031F43" stroke-width="3.85409" stroke-miterlimit="10" stroke-linecap="round" stroke-linejoin="round"/>
<path d="M1140.18 506.456C1140.18 506.456 1137.63 493.352 1137.77 480.113C1137.9 466.874 1139.06 459.609 1139.06 459.609" stroke="#031F43" stroke-width="3.85409" stroke-miterlimit="10" stroke-linecap="round" stroke-linejoin="round"/>
<path d="M1113.4 296.85C1113.4 296.85 1107.24 305.618 1107.87 318.298C1108.53 330.978 1114.37 341.692 1114.37 341.692C1114.37 341.692 1120.23 327.856 1120.23 318.298C1120.23 306.6 1113.4 296.85 1113.4 296.85Z" fill="#031F43"/>
<path d="M1172.55 296.85C1172.55 296.85 1166.38 305.618 1167.02 318.298C1167.67 330.978 1173.51 341.692 1173.51 341.692C1173.51 341.692 1179.37 327.856 1179.37 318.298C1179.39 306.6 1172.55 296.85 1172.55 296.85Z" fill="#031F43"/>
<path d="M1083.25 303.268C1083.25 303.268 1088.78 271.414 1120.31 271.414" stroke="#031F43" stroke-width="3.85409" stroke-miterlimit="10" stroke-linecap="round" stroke-linejoin="round"/>
<path d="M1172.96 271.74C1172.96 271.74 1204.81 277.271 1204.81 308.797" stroke="#031F43" stroke-width="3.85409" stroke-miterlimit="10" stroke-linecap="round" stroke-linejoin="round"/>
<path d="M1131.08 352.697C1131.08 352.697 1138.46 335.354 1143.43 335.354C1148.42 335.354 1153.8 352.697 1153.8 352.697C1153.8 352.697 1148.62 349.517 1143.24 349.517C1137.86 349.498 1131.08 352.697 1131.08 352.697Z" fill="#031F43"/>
<path d="M1121.54 367.671C1120.25 368.596 1118.25 371.371 1119.73 374.011C1121 376.285 1122.93 379.85 1130.79 376.998C1142.35 372.816 1151.87 380.351 1159.06 376.998C1164.53 374.454 1164.22 369.983 1162.37 368.23C1160.18 366.129 1153.41 364.433 1151 361.446C1148.6 358.459 1147.75 353.623 1142.33 353.526C1136.36 353.43 1133.66 362.236 1130.08 363.836C1126.49 365.435 1123.7 366.129 1121.54 367.671Z" stroke="#031F43" stroke-width="3.85409" stroke-miterlimit="10" stroke-linecap="round" stroke-linejoin="round"/>
<path d="M1121.73 367.669L1127.21 373.913L1128.29 364.451L1121.73 367.669Z" stroke="#031F43" stroke-width="1.92705" stroke-miterlimit="10" stroke-linecap="round" stroke-linejoin="round"/>
<path d="M1128.96 363.487L1134.28 370.135L1135.01 358.92L1128.96 363.487Z" stroke="#031F43" stroke-width="1.92705" stroke-miterlimit="10" stroke-linecap="round" stroke-linejoin="round"/>
<path d="M1136.51 356.087L1141.31 364.875L1144.38 354.025L1136.51 356.087Z" stroke="#031F43" stroke-width="1.92705" stroke-miterlimit="10" stroke-linecap="round" stroke-linejoin="round"/>
<path d="M1145.36 356.84L1147.19 368.055L1150.43 359.981L1145.36 356.84Z" stroke="#031F43" stroke-width="1.92705" stroke-miterlimit="10" stroke-linecap="round" stroke-linejoin="round"/>
<path d="M1151.25 363.064L1152.91 372.931L1157.94 365.338L1151.25 363.064Z" stroke="#031F43" stroke-width="1.92705" stroke-miterlimit="10" stroke-linecap="round" stroke-linejoin="round"/>
<path d="M1092.13 343.312C1092.13 343.312 1100.21 351.753 1114.79 352.986" stroke="#031F43" stroke-width="3.85409" stroke-miterlimit="10" stroke-linecap="round" stroke-linejoin="round"/>
<path d="M1161 348.766C1161 348.766 1172.07 353.68 1181.03 349.652" stroke="#031F43" stroke-width="3.85409" stroke-miterlimit="10" stroke-linecap="round" stroke-linejoin="round"/>
<path d="M1064.42 263.09C1064.66 263.764 1075.33 279.431 1075.1 293.98" stroke="#031F43" stroke-width="3.85409" stroke-miterlimit="10" stroke-linecap="round" stroke-linejoin="round"/>
<path d="M1221.86 264.631C1221.63 265.305 1210.96 280.972 1211.19 295.521" stroke="#031F43" stroke-width="3.85409" stroke-miterlimit="10" stroke-linecap="round" stroke-linejoin="round"/>
<path d="M1094.02 494.181C1094.02 494.181 1108.61 471.288 1126.84 473.793C1145.05 476.298 1159.87 494.104 1162.08 523.896C1163.07 537.097 1155.22 572.4 1155.22 572.4L1152.04 562.36L1147.4 575.079L1146.42 566.272L1139.83 579.916L1137.55 569.432L1132.81 579.222C1132.81 579.222 1133.85 557.331 1132.95 542.531C1132.04 527.731 1130.5 517.749 1130.5 517.749C1130.5 517.749 1128.23 527.538 1127.53 533.242C1126.86 538.927 1124.89 560.183 1124.89 560.183C1124.89 560.183 1121.46 540.854 1120.48 528.136C1119.77 518.905 1120.69 494.316 1120.69 494.316" fill="white"/>
<path d="M1094.02 494.181C1094.02 494.181 1108.61 471.288 1126.84 473.793C1145.05 476.298 1159.87 494.104 1162.08 523.896C1163.07 537.097 1155.22 572.4 1155.22 572.4L1152.04 562.36L1147.4 575.079L1146.42 566.272L1139.83 579.916L1137.55 569.432L1132.81 579.222C1132.81 579.222 1133.85 557.331 1132.95 542.531C1132.04 527.731 1130.5 517.749 1130.5 517.749C1130.5 517.749 1128.23 527.538 1127.53 533.242C1126.86 538.927 1124.89 560.183 1124.89 560.183C1124.89 560.183 1121.46 540.854 1120.48 528.136C1119.77 518.905 1120.69 494.316 1120.69 494.316" stroke="#031F43" stroke-width="3.85409" stroke-miterlimit="10" stroke-linecap="round" stroke-linejoin="round"/>
<path d="M1137.79 569.913C1137.79 569.913 1140.29 556.847 1140.16 543.647C1140.02 530.447 1138.88 523.201 1138.88 523.201" stroke="#031F43" stroke-width="3.85409" stroke-miterlimit="10" stroke-linecap="round" stroke-linejoin="round"/>
<path d="M1145.82 567.661C1145.82 567.661 1148.33 554.595 1148.19 541.395C1148.06 528.195 1146.92 520.949 1146.92 520.949" stroke="#031F43" stroke-width="3.85409" stroke-miterlimit="10" stroke-linecap="round" stroke-linejoin="round"/>
<path d="M1152.51 563.497C1152.51 563.497 1155.01 550.431 1154.88 537.231C1154.74 524.031 1153.6 516.785 1153.6 516.785" stroke="#031F43" stroke-width="3.85409" stroke-miterlimit="10" stroke-linecap="round" stroke-linejoin="round"/>
<path d="M1292.12 132.841L993.484 95.3984V575.772L1296.69 668.926L1292.12 132.841Z" stroke="#031F43" stroke-width="3.85409" stroke-miterlimit="10" stroke-linecap="round" stroke-linejoin="round"/>
<path d="M1028.19 133.748V556.6L1258.34 622.35L1260.17 162.577L1028.19 133.748Z" stroke="#031F43" stroke-width="3.85409" stroke-miterlimit="10" stroke-linecap="round" stroke-linejoin="round"/>
<path d="M1141.23 150.742L1141.44 585.291" stroke="#031F43" stroke-width="7.70818" stroke-miterlimit="10" stroke-linecap="round" stroke-linejoin="round"/>
<path d="M1029.92 263.688L1229.1 304.522" stroke="#031F43" stroke-width="7.70818" stroke-miterlimit="10" stroke-linecap="round" stroke-linejoin="round"/>
<path d="M1032.72 442.594L1229.1 483.524" stroke="#031F43" stroke-width="7.70818" stroke-miterlimit="10" stroke-linecap="round" stroke-linejoin="round"/>
<path d="M1213.69 91.2168L1221.84 691.954C1221.84 691.954 1251.4 697.832 1263.33 707.775C1275.26 717.719 1288.15 707.775 1300.06 707.775C1311.97 707.775 1330.83 713.73 1330.83 713.73L1322.49 110.121" fill="#A7CCE9"/>
<path d="M1263.33 707.775V362.256" stroke="#031F43" stroke-width="3.85409" stroke-miterlimit="10" stroke-linecap="round" stroke-linejoin="round"/>
<path d="M1300.08 707.775V539.352" stroke="#031F43" stroke-width="3.85409" stroke-miterlimit="10" stroke-linecap="round" stroke-linejoin="round"/>
<path d="M993.484 95.3984L1028.19 133.747" stroke="#031F43" stroke-width="3.85409" stroke-miterlimit="10" stroke-linecap="round" stroke-linejoin="round"/>
<path d="M1028.19 556.598L993.484 575.772" stroke="#031F43" stroke-width="3.85409" stroke-miterlimit="10" stroke-linecap="round" stroke-linejoin="round"/>
<path d="M528.565 1069.11L533.112 1132.09L561.093 1146.66L594.007 1135.67V1094.45L528.565 1069.11Z" fill="#347CE1" stroke="#031F43" stroke-width="3.85409" stroke-miterlimit="10" stroke-linecap="round" stroke-linejoin="round"/>
<path d="M561.09 1146.66V1086.13" stroke="#031F43" stroke-width="3.85409" stroke-miterlimit="10" stroke-linecap="round" stroke-linejoin="round"/>
<path d="M903.087 1220.37L907.615 1279.01L935.615 1297.91L978.704 1277.27V1209.32L903.087 1220.37Z" fill="#347CE1" stroke="#031F43" stroke-width="3.85409" stroke-miterlimit="10" stroke-linecap="round" stroke-linejoin="round"/>
<path d="M937.367 1297.91L935.421 1201" stroke="#031F43" stroke-width="3.85409" stroke-miterlimit="10" stroke-linecap="round" stroke-linejoin="round"/>
<path d="M1154.95 1125.92L1159.48 1184.56L1187.48 1203.47L1223.8 1189.19V1114.88L1154.95 1125.92Z" fill="#347CE1" stroke="#031F43" stroke-width="3.85409" stroke-miterlimit="10" stroke-linecap="round" stroke-linejoin="round"/>
<path d="M1187.48 1203.47L1183.89 1107.19" stroke="#031F43" stroke-width="3.85409" stroke-miterlimit="10" stroke-linecap="round" stroke-linejoin="round"/>
<path d="M1226.75 1123.74L895.146 1242.08L520.702 1071.69L480.157 657.823C476.476 635.257 490.775 613.655 512.994 608.24L710.42 539.387C729.748 532.642 746.378 529.578 765.013 538.096L1200.45 737.256C1216.48 744.579 1226.75 760.593 1226.75 778.225V1123.74Z" fill="#A7CCE9"/>
<path d="M1217.64 749.994L1144.95 777.821L765.493 579.143L558.181 645.182C539.874 651.021 528.485 669.27 531.338 688.29L559.607 1003.34" stroke="#031F43" stroke-width="3.85409" stroke-miterlimit="10" stroke-linecap="round" stroke-linejoin="round"/>
<path d="M1144.95 777.842V984.113" stroke="#031F43" stroke-width="3.85409" stroke-miterlimit="10" stroke-linecap="round" stroke-linejoin="round"/>
<path d="M1226.58 1016.29L896.244 1145.21L559.242 1004.19L554.366 947.304L780.621 854.594L1226.58 1016.29Z" stroke="#031F43" stroke-width="3.85409" stroke-miterlimit="10" stroke-linecap="round" stroke-linejoin="round"/>
<path d="M662.937 850.161C662.937 850.161 623.163 892.248 605.473 884.771C587.782 877.313 583.851 820.755 596.165 767.992C608.479 715.23 664.691 613.636 704.06 609.974C743.43 606.313 776.479 589.644 794.786 590.068C813.093 590.492 883.276 566.519 1006.99 596.601C1084.61 615.466 1063.86 644.16 1053.61 652.87C1040.46 664.047 984.985 685.784 984.985 685.784L960.435 657.418C960.435 657.418 900.002 703.436 888.98 707.791C877.957 712.146 812.938 742.902 789.563 796.801C783.474 810.85 771.391 844.862 714.929 871.263C702.23 877.198 659.68 880.628 659.68 880.628L662.937 850.161Z" fill="#E72A8B"/>
<path d="M631.391 877.776L709.378 807.651L690.05 761.807C690.05 761.807 643.126 784.989 630.292 794.894" stroke="#031F43" stroke-width="3.85409" stroke-miterlimit="10" stroke-linecap="round" stroke-linejoin="round"/>
<path d="M913.916 996.271C913.916 996.271 914.706 1013.81 925.96 1036.41C937.214 1059.02 979.165 1091.99 979.57 1094.94C979.956 1097.87 977.026 1105.69 974.02 1106.71C971.033 1107.73 964.616 1107.17 964.616 1107.17C964.616 1107.17 961.398 1110.76 958.469 1111.14C955.54 1111.53 952.495 1109.33 952.495 1109.33C952.495 1109.33 948.93 1113.2 946.001 1113.61C943.072 1114.01 940.644 1112.16 940.644 1112.16C940.644 1112.16 941.723 1114.52 938.447 1115.19C935.171 1115.86 914.552 1096.98 901.968 1089.73C889.365 1082.51 881.252 1079.54 876.878 1070.44C872.504 1061.35 884.663 1051.44 882.543 1035.14C880.424 1018.82 874.546 1001.22 874.546 1001.22L913.916 996.271Z" fill="white" stroke="#031F43" stroke-width="3.85409" stroke-miterlimit="10" stroke-linecap="round" stroke-linejoin="round"/>
<path d="M832.595 994.517C832.595 994.517 819.048 1008.95 816.061 1017.62C813.074 1026.29 816.562 1075.7 816.562 1075.7C816.562 1075.7 823.211 1079.35 823.731 1083.03C824.251 1086.71 825.889 1090.19 825.889 1090.19C825.889 1090.19 836.546 1095.88 836.546 1099.21C836.546 1102.55 832.461 1104.44 826.737 1102.82C821.014 1101.2 801.262 1094.16 792.378 1077.77C783.494 1061.37 780.411 1045.47 770.063 1036.2C759.715 1026.93 754.627 1018.1 759.136 1007.91C763.665 997.697 788.158 988.678 797.196 981.105C806.233 973.531 823.712 952.18 823.712 952.18L832.595 994.517Z" fill="white" stroke="#031F43" stroke-width="3.85409" stroke-miterlimit="10" stroke-linecap="round" stroke-linejoin="round"/>
<path d="M928.503 646.607C928.271 645.201 923.242 615.139 923.242 615.139C923.242 615.139 901.852 634.698 890.733 648.188C880.192 660.983 870.98 670.85 870.46 684.744C869.94 698.638 928.503 646.607 928.503 646.607Z" fill="white" stroke="#031F43" stroke-width="3.85409" stroke-miterlimit="10" stroke-linecap="round" stroke-linejoin="round"/>
<path d="M870.463 684.742C870.926 683.394 873.99 671.041 839.091 660.308C820.842 654.7 769.852 644.679 769.505 644.641C769.158 644.602 765.593 672.795 765.593 672.795L870.463 684.742Z" fill="white" stroke="#031F43" stroke-width="3.85409" stroke-miterlimit="10" stroke-linecap="round" stroke-linejoin="round"/>
<path d="M800.449 614.174C831.611 614.174 856.873 588.723 856.873 557.326C856.873 525.93 831.611 500.479 800.449 500.479C769.287 500.479 744.025 525.93 744.025 557.326C744.025 588.723 769.287 614.174 800.449 614.174Z" fill="white"/>
<path d="M854.232 503.717C854.232 503.717 885.874 536.477 867.027 566.404C841.263 607.295 857.643 632.251 857.643 632.251C857.643 632.251 847.661 640.922 820.72 636.587C807.405 634.448 788.018 615.563 788.018 615.563C788.018 615.563 788.192 609.704 798.675 608.933C809.929 608.105 817.965 604.482 825.943 594.172C850.262 562.781 854.232 503.717 854.232 503.717Z" fill="#031F43"/>
<path d="M773.819 536.034C777.577 525.57 791.933 519.384 802.05 523.99C806.02 525.801 810.317 528.518 814.75 532.565C832.44 548.752 860.266 544.455 860.266 544.455C860.266 544.455 869.42 527.747 860.498 501.79C850.439 472.499 796.655 458.663 769.348 477.008C740.192 496.606 743.487 515.376 717.01 532.449C679.953 556.345 677.525 578.968 677.525 578.968C677.525 578.968 703.116 598.374 716.355 613.52C736.319 636.375 754.375 609.512 754.375 609.512L773.819 536.034Z" fill="#031F43"/>
<path d="M768.809 554.802C768.809 554.802 768.115 545.61 760.599 544.165C753.084 542.72 747.226 552.952 749.23 560.776C750.656 566.365 755.223 571.279 757.709 573.63C758.73 574.593 759.193 576 758.942 577.387L753.739 606.062C752.063 615.312 757.246 624.465 766.091 627.683C768.346 628.493 770.832 629.225 773.549 629.764C775.495 630.15 777.5 630.381 779.446 630.516C788.445 631.075 796.558 625.062 798.967 616.371C799.68 613.809 802.782 610.012 800.123 610.109C780.583 610.783 776.035 597.409 776.266 596.87" fill="white"/>
<path d="M768.809 554.802C768.809 554.802 768.115 545.61 760.599 544.165C753.084 542.72 747.226 552.952 749.23 560.776C750.656 566.365 755.223 571.279 757.709 573.63C758.73 574.593 759.193 576 758.942 577.387L753.739 606.062C752.063 615.312 757.246 624.465 766.091 627.683C768.346 628.493 770.832 629.225 773.549 629.764C775.495 630.15 777.5 630.381 779.446 630.516C788.445 631.075 796.558 625.062 798.967 616.371C799.68 613.809 802.782 610.012 800.123 610.109C780.583 610.783 776.035 597.409 776.266 596.87" stroke="#031F43" stroke-width="3.85409" stroke-miterlimit="10" stroke-linecap="round" stroke-linejoin="round"/>
<path d="M815.848 563.781C815.116 568.021 814.364 576.596 814.364 576.596C814.364 576.596 807.234 577.733 804.189 574.38" stroke="#031F43" stroke-width="3.85409" stroke-miterlimit="10" stroke-linecap="round" stroke-linejoin="round"/>
<path d="M795.67 547.924C795.67 547.924 797.597 553.666 805.344 552.915" stroke="#031F43" stroke-width="3.85409" stroke-miterlimit="10" stroke-linecap="round" stroke-linejoin="round"/>
<path d="M824.327 559.195C824.327 559.195 826.87 564.687 834.501 563.088" stroke="#031F43" stroke-width="3.85409" stroke-miterlimit="10" stroke-linecap="round" stroke-linejoin="round"/>
<path d="M792.142 581.568L811.374 589.508C811.374 589.508 806.537 597.698 797.865 594.229C789.348 590.799 792.142 581.568 792.142 581.568Z" stroke="#031F43" stroke-width="3.85409" stroke-miterlimit="10" stroke-linecap="round" stroke-linejoin="round"/>
<path d="M797.637 565.228C806.343 565.228 813.4 558.17 813.4 549.464C813.4 540.759 806.343 533.701 797.637 533.701C788.931 533.701 781.874 540.759 781.874 549.464C781.874 558.17 788.931 565.228 797.637 565.228Z" stroke="#031F43" stroke-width="3.85409" stroke-miterlimit="10" stroke-linecap="round" stroke-linejoin="round"/>
<path d="M833.153 577.407C841.859 577.407 848.916 570.35 848.916 561.644C848.916 552.938 841.859 545.881 833.153 545.881C824.447 545.881 817.39 552.938 817.39 561.644C817.39 570.35 824.447 577.407 833.153 577.407Z" stroke="#031F43" stroke-width="3.85409" stroke-miterlimit="10" stroke-linecap="round" stroke-linejoin="round"/>
<path d="M744.087 655.915C745.089 656.359 864.161 677.209 864.161 677.209L883.143 675.379L947.217 611.998L944.384 755.987L881.35 811.447L739.79 800.81L744.087 655.915Z" fill="#F3B63F"/>
<path d="M883.124 675.398L881.332 811.467L860.809 811.063L864.162 677.229L883.124 675.398Z" stroke="#031F43" stroke-width="3.85409" stroke-miterlimit="10" stroke-linecap="round" stroke-linejoin="round"/>
<path d="M961.264 657.881C953.074 659.018 943.439 660.617 937.446 662.448C931.453 664.279 919.948 664.645 918.426 666.495C916.904 668.345 920.295 671.929 923.051 672.681C925.807 673.432 932.59 672.469 932.59 672.469C932.59 672.469 909.33 701.316 908.367 705.71C907.384 710.123 909.986 712.513 909.986 712.513C909.986 712.513 907.384 718.005 909.061 721.396C910.718 724.769 915.67 722.687 915.67 722.687C915.67 722.687 917.019 725.694 919.891 726.407C922.762 727.12 924.766 725.347 924.766 725.347C924.766 725.347 928.813 726.638 931.414 726.31C934.016 725.983 958.104 707.618 965.06 698.464C972.017 689.311 975.601 682.142 979.937 678.828" fill="white"/>
<path d="M961.264 657.881C953.074 659.018 943.439 660.617 937.446 662.448C931.453 664.279 919.948 664.645 918.426 666.495C916.904 668.345 920.295 671.929 923.051 672.681C925.807 673.432 932.59 672.469 932.59 672.469C932.59 672.469 909.33 701.316 908.367 705.71C907.384 710.123 909.986 712.513 909.986 712.513C909.986 712.513 907.384 718.005 909.061 721.396C910.718 724.769 915.67 722.687 915.67 722.687C915.67 722.687 917.019 725.694 919.891 726.407C922.762 727.12 924.766 725.347 924.766 725.347C924.766 725.347 928.813 726.638 931.414 726.31C934.016 725.983 958.104 707.618 965.06 698.464C972.017 689.311 975.601 682.142 979.937 678.828" stroke="#031F43" stroke-width="3.85409" stroke-linecap="round" stroke-linejoin="round"/>
<path d="M909.965 712.534L931.047 690.045" stroke="#031F43" stroke-width="3.85409" stroke-linecap="round" stroke-linejoin="round"/>
<path d="M915.476 722.534L936.577 700.045" stroke="#031F43" stroke-width="3.85409" stroke-linecap="round" stroke-linejoin="round"/>
<path d="M924.381 725.696L945.463 703.207" stroke="#031F43" stroke-width="3.85409" stroke-linecap="round" stroke-linejoin="round"/>
<path d="M720.266 728.892C720.266 728.892 720.921 721.377 718.628 720.144C716.334 718.91 705.582 715.904 702.73 717.041C699.877 718.159 696.447 729.914 694.809 732.862C693.171 735.811 703.076 754.696 702.479 761.517C701.882 768.339 693.287 768.59 693.287 768.59C693.287 768.59 708.125 802.737 708.626 802.737C718.743 802.737 746.204 782.618 755.955 773.504C765.705 764.369 777.345 755.813 778.038 751.747C778.732 747.681 775.63 743.923 775.63 743.923C775.63 743.923 779.773 739.51 778.443 736.408C776.304 731.417 769.058 730.974 769.058 730.974C769.058 730.974 773.857 726.117 771.082 722.437C768.307 718.756 761.639 720.144 761.639 720.144C761.639 720.144 761.003 713.091 756.436 712.802C750.944 712.455 733.042 720.741 728.61 724.133C724.158 727.505 720.266 728.892 720.266 728.892Z" fill="white" stroke="#031F43" stroke-width="3.85409" stroke-miterlimit="10" stroke-linecap="round" stroke-linejoin="round"/>
<path d="M761.623 720.123C761.623 720.123 753.51 723.958 746.515 727.696C739.52 731.435 729.114 738.989 729.114 738.989" stroke="#031F43" stroke-width="3.85409" stroke-miterlimit="10" stroke-linecap="round" stroke-linejoin="round"/>
<path d="M769.138 731.031C769.138 731.031 761.026 734.866 754.03 738.605C747.035 742.343 736.629 749.897 736.629 749.897" stroke="#031F43" stroke-width="3.85409" stroke-miterlimit="10" stroke-linecap="round" stroke-linejoin="round"/>
<path d="M776.364 742.189C776.364 742.189 768.252 746.024 761.256 749.763C754.261 753.501 743.855 761.055 743.855 761.055" stroke="#031F43" stroke-width="3.85409" stroke-miterlimit="10" stroke-linecap="round" stroke-linejoin="round"/>
<path d="M720.268 728.893C720.268 728.893 713.408 734.038 710.344 733.768C707.28 733.498 704.813 732.515 704.813 732.515" stroke="#031F43" stroke-width="3.85409" stroke-miterlimit="10" stroke-linecap="round" stroke-linejoin="round"/>
<path d="M886.629 779.132C886.629 779.132 997.723 755.853 1035.65 799.578C1073.57 843.283 836.641 1004.33 836.641 1004.33L802.648 954.223L879.846 872.112L886.629 779.132Z" fill="#347CE1" stroke="#031F43" stroke-width="3.85409" stroke-miterlimit="10" stroke-linecap="round" stroke-linejoin="round"/>
<path d="M914.706 849.871C914.821 848.561 930.507 834.59 930.507 834.59" stroke="#031F43" stroke-width="3.85409" stroke-miterlimit="10" stroke-linecap="round" stroke-linejoin="round"/>
<path d="M659.682 880.648C659.682 880.648 820.301 698.6 873.854 732.921C927.407 767.222 929.353 998.969 929.353 998.969L869.113 1033.42C869.113 1033.42 840.15 979.737 830.842 939.866C821.535 899.996 820.552 880.397 820.552 880.397C820.552 880.397 793.438 959.483 757.692 983.282C721.945 1007.08 689.224 985.711 675.118 965.284C655.539 936.956 659.682 880.648 659.682 880.648Z" fill="#347CE1" stroke="#031F43" stroke-width="3.85409" stroke-miterlimit="10" stroke-linecap="round" stroke-linejoin="round"/>
<path d="M820.549 880.397C820.549 880.397 818.968 860.067 816.463 842.338" stroke="#031F43" stroke-width="3.85409" stroke-miterlimit="10" stroke-linecap="round" stroke-linejoin="round"/>
<path d="M963.401 655.164L1004.25 628.783" stroke="#031F43" stroke-width="3.85409" stroke-miterlimit="10" stroke-linecap="round" stroke-linejoin="round"/>
<path d="M764.764 240.831C778.631 240.831 789.873 220.168 789.873 194.678C789.873 169.189 778.631 148.525 764.764 148.525C750.896 148.525 739.654 169.189 739.654 194.678C739.654 220.168 750.896 240.831 764.764 240.831Z" fill="#F3B63F"/>
<path d="M807.582 271.393H860.633L848.686 167.428C847.876 160.472 841.999 155.211 834.984 155.211C828.066 155.211 822.208 160.337 821.302 167.197L807.582 271.393Z" fill="#F3B63F"/>
<path d="M817.605 193.947H771.703" stroke="#031F43" stroke-width="3.85409" stroke-miterlimit="10" stroke-linecap="round" stroke-linejoin="round"/>
<path d="M863.449 283.283L961.092 550.738" stroke="#031F43" stroke-width="3.85409" stroke-miterlimit="10" stroke-linecap="round" stroke-linejoin="round"/>
<path d="M803.073 282.34L732.273 476.066" stroke="#031F43" stroke-width="3.85409" stroke-miterlimit="10" stroke-linecap="round" stroke-linejoin="round"/>
<path d="M847.686 300.703L873.798 489.611" stroke="#031F43" stroke-width="3.85409" stroke-miterlimit="10" stroke-linecap="round" stroke-linejoin="round"/>
</svg>
