<svg width="1840" height="1380" viewBox="0 0 1840 1380" fill="none" xmlns="http://www.w3.org/2000/svg">
<path d="M769.983 1069.81C795.131 1038.9 799.043 1006.64 786.383 958.291C769.367 893.253 718.3 888.262 698.625 868.779C678.931 849.297 679.162 819.235 662.551 799.29C659.699 795.86 656.981 792.815 654.457 790.117C650.603 786.013 643.993 790.291 646.036 795.532C649.158 803.568 651.663 812.741 651.663 821.47C651.663 844.537 658.465 868.799 658.465 868.799C658.465 868.799 630.947 853.98 627.17 835.268C623.412 816.556 629.483 788.556 606.011 772.388C588.436 760.287 577.298 741.286 570.843 726.679C568.723 721.861 561.573 723.095 561.111 728.336C559.878 742.577 558.779 760.788 559.531 774.335C561.246 805.379 576.72 802.412 578.204 822.723C579.688 843.053 577.722 892.328 589.284 913.988C604.258 942.046 639.966 957.886 639.966 957.886C639.966 957.886 607.013 958.291 580.266 919.037C566.661 899.072 550.84 890.285 540.993 886.527C537.004 885.005 533.034 888.821 534.364 892.867C542.823 918.882 568.183 994.211 588.61 1028.2C613.507 1069.65 643.434 1087.9 692.285 1095.4C722.636 1100.08 752.1 1091.78 769.983 1069.81Z" fill="#E72A8B"/>
<path d="M734.47 1072.83C721.77 1078.36 695.813 1082.01 674.5 1077.09C653.187 1072.18 622.142 1042.6 622.142 1042.6C622.142 1042.6 642.896 1041.27 652.589 1047.28C662.282 1053.29 680.975 1052.43 680.975 1052.43C680.975 1052.43 668.083 1034.45 648.735 1024.93C629.388 1015.41 616.496 979.564 616.496 979.564C616.496 979.564 637.848 1004 653.341 1008.2C668.834 1012.4 696.256 1004.5 709.707 1018.91C736.532 1047.67 768.983 1042.62 768.983 1042.62C768.983 1042.62 755.667 1063.62 734.47 1072.83Z" fill="white"/>
<path d="M735.007 960.893C735.007 960.893 713.212 964.226 703.731 967.56C694.25 970.894 686.812 976.27 687.062 980.375C687.313 984.48 700.648 979.354 703.211 979.084C705.774 978.833 699.877 984.981 697.314 995.483C694.751 1005.99 691.167 1019.07 691.937 1024.2C692.708 1029.32 697.584 1029.84 697.584 1029.84C697.584 1029.84 699.376 1038.05 704.001 1039.32C708.606 1040.61 708.337 1039.73 708.337 1039.73C708.337 1039.73 709.185 1044.58 714.041 1044.58C718.916 1044.58 718.319 1041.15 718.319 1041.15C718.319 1041.15 718.608 1036.3 721.749 1027.74C725.314 1018.03 728.359 1010.61 728.359 1010.61C728.359 1010.61 731.442 1024.2 735.797 1027.01C740.152 1029.82 741.443 1029.05 741.443 1029.05C741.443 1029.05 743.235 1025.47 740.672 1018.03C738.11 1010.59 739.381 1006.76 740.923 1000.86C742.465 994.963 753.487 978.814 753.487 978.814L735.007 960.893Z" fill="white" stroke="black" stroke-width="3.85409" stroke-linecap="round" stroke-linejoin="round"/>
<path d="M866.549 811.95C866.549 811.95 855.777 857.178 846.739 876.121C837.701 895.083 811.416 932.545 802.378 943.741C793.34 954.937 758.866 994.133 758.866 994.133L729.998 962.26C729.998 962.26 754.549 923.488 760.157 899.804C765.764 876.121 799.353 793.836 808.391 784.798C817.428 775.76 869.555 812.374 869.555 812.374L866.549 811.95Z" fill="#808080" stroke="#231F20" stroke-width="3.85409" stroke-miterlimit="10"/>
<path d="M697.585 1029.86C697.585 1029.86 703.173 1008.62 708.319 1000.07" stroke="black" stroke-width="3.85409" stroke-linecap="round" stroke-linejoin="round"/>
<path d="M707.857 1037.28C707.857 1037.28 713.445 1016.04 718.591 1007.49" stroke="black" stroke-width="3.85409" stroke-linecap="round" stroke-linejoin="round"/>
<path d="M940.585 824.766L892.506 767.128C892.506 767.128 895.146 741.055 871.462 737.953C847.779 734.85 824.828 720.494 813.824 734.6C802.821 748.706 797.329 770.963 798.755 773.815C800.181 776.686 803.784 791.987 807.369 794.858C810.953 797.73 814.788 800.601 814.788 800.601C814.788 800.601 838.221 819.736 848.993 822.126C859.765 824.516 869.555 833.361 877.937 835.037C886.32 836.714 940.585 824.766 940.585 824.766Z" fill="white"/>
<path d="M997.682 262.607L1011.56 287.929L987.97 306.332L962.283 273.707L997.682 262.607Z" fill="white" stroke="black" stroke-width="3.85409" stroke-linecap="round" stroke-linejoin="round"/>
<path d="M879.651 362.738L908.133 367.594L907.902 397.502L866.855 394.111L879.651 362.738Z" fill="white" stroke="black" stroke-width="3.85409" stroke-linecap="round" stroke-linejoin="round"/>
<path d="M847.779 822.397L849.417 835.809C849.417 835.809 871.308 841.455 881.888 843.806C892.486 846.157 912.239 835.809 912.239 835.809C912.239 835.809 899.539 836.406 888.671 832.687C880.77 829.989 868.495 819.371 868.495 819.371" fill="#808080"/>
<path d="M847.779 822.397L849.417 835.809C849.417 835.809 871.308 841.455 881.888 843.806C892.486 846.157 912.239 835.809 912.239 835.809C912.239 835.809 899.539 836.406 888.671 832.687C880.77 829.989 868.495 819.371 868.495 819.371" stroke="#231F20" stroke-width="3.85409" stroke-miterlimit="10"/>
<path d="M795.517 771.83C795.517 771.83 805.731 796.13 829.819 812.26C853.887 828.389 863.85 822.434 870.923 817.944C882.735 810.448 884.778 797.498 884.778 797.498" stroke="black" stroke-width="3.85409" stroke-linecap="round" stroke-linejoin="round"/>
<path d="M886.626 1173.5C867.664 1159.55 860.573 1105.36 906.378 1081.45C929.542 1069.37 947.906 1045.24 957.965 1027.43C961.203 1021.69 969.952 1023.69 970.395 1030.29C970.954 1038.46 979.317 1014.12 976.388 1021.75C968.988 1041 976.003 1049.13 976.003 1049.13C976.003 1049.13 963.496 1052.27 993.77 1033.79C1024.04 1015.31 1104.86 991.552 1118.14 958.098C1131.42 924.645 1130.84 885.082 1162.48 862.941C1181.93 849.336 1195.84 834.941 1204.92 823.918C1209.31 818.58 1217.92 822.588 1216.75 829.41C1214.49 842.514 1209.27 858.547 1197.44 871.169C1173.24 896.972 1176.9 917.862 1174.91 933.779C1172.91 949.696 1166.72 964.92 1166.72 964.92C1166.72 964.92 1202.99 930.04 1209.5 898.977C1216.02 867.913 1233.61 838.486 1260.13 812.279C1273.87 798.712 1283.02 779.211 1288.67 763.563C1291.13 756.722 1301.17 758.109 1301.75 765.374C1302.69 777.495 1301.92 792.334 1296.34 807.133C1283.25 841.743 1265.04 888.031 1265.04 888.031C1265.04 888.031 1295.18 875.563 1303.87 850.087C1305.35 845.752 1307.18 841.589 1309.19 837.696C1312.66 830.932 1322.95 834.343 1321.83 841.859C1320.6 850.087 1319.96 859.511 1320.52 869.917C1322.6 909.055 1293.27 946.517 1278.36 970.682C1263.44 994.847 1283.67 1017.2 1272.86 1052.6C1263.31 1083.9 1235.15 1170.86 1186.22 1184.64C1083.22 1213.61 1096.39 1168.05 1012.15 1184.28C931.7 1199.75 901.195 1184.22 886.626 1173.5Z" fill="#E72A8B"/>
<path d="M949.141 969.141C949.141 969.141 929.369 981.454 924.821 984.962C920.273 988.488 915.918 992.4 917.788 996.139C919.657 999.877 923.588 998.412 930.622 995.098C937.655 991.783 942.627 989.721 943.244 990.338C943.861 990.955 942.839 1010.21 943.86 1018.9C944.882 1027.59 945.094 1042.06 948.196 1043.31C951.299 1044.57 952.532 1043.72 953.361 1038.98C954.189 1034.24 955.23 1013.52 956.463 1013.94C957.697 1014.37 959.354 1047.05 960.799 1050.98C962.245 1054.91 965.559 1055.74 967.621 1055.13C969.683 1054.51 971.34 1053.47 971.34 1053.47C971.34 1053.47 974.038 1056.78 976.929 1056.36C979.819 1055.93 981.476 1053.04 981.476 1053.04C981.476 1053.04 986.236 1053.04 987.894 1052.22C989.551 1051.39 991.613 1034.43 991.613 1034.43C991.613 1034.43 990.784 1021.81 989.955 1015.2C989.127 1008.59 992.981 1031.65 997.606 1032.15C1001.23 1032.56 1002.17 1014.14 996.18 1001.94C990.187 989.741 984.618 975.789 984.618 975.789L949.141 969.141Z" fill="white" stroke="black" stroke-width="3.85409" stroke-linecap="round" stroke-linejoin="round"/>
<path d="M931.643 556.867C931.643 556.867 952.841 513.991 958.622 497.11C964.403 480.229 979.819 446.987 979.819 446.987C979.819 446.987 928.31 433.96 917.711 432.033C907.112 430.106 898.864 428.198 898.864 428.198L901.273 366.514C901.273 366.514 1015.47 375.185 1023.18 379.039C1030.89 382.894 1058.35 433.98 1058.35 450.359C1058.35 466.739 1001.96 586.737 1001.96 586.737L931.643 556.867Z" fill="#808080" stroke="#231F20" stroke-width="3.85409" stroke-miterlimit="10"/>
<path d="M878.745 397.925C878.745 397.925 870.189 402.82 860.67 401.914C851.15 401.009 844.232 399.583 844.232 399.583L846.12 373.163L849.724 371.621C849.724 371.621 849.3 361.35 849.377 351.715C849.454 342.079 853.424 319.321 858.145 308.838C862.866 298.374 865.969 291.668 869.149 291.205C872.328 290.743 878.745 293.826 878.745 293.826C878.745 293.826 876.086 312.788 875.99 322.693C875.893 332.618 886.665 352.967 888.342 355.434C890.019 357.92 893.641 362.911 890.828 365.108C888.014 367.305 883.293 373.24 880.769 372.931C878.264 372.623 877.666 375.09 876.51 379.773C875.354 384.455 878.745 397.925 878.745 397.925Z" fill="#808080" stroke="#231F20" stroke-width="3.85409" stroke-miterlimit="10"/>
<path d="M877.34 359.865C877.34 359.865 884.2 355.26 885.53 353.082" stroke="black" stroke-width="3.85409" stroke-linecap="round" stroke-linejoin="round"/>
<path d="M873.757 352.195C873.757 352.195 880.617 347.59 881.947 345.412" stroke="black" stroke-width="3.85409" stroke-linecap="round" stroke-linejoin="round"/>
<path d="M871.193 344.777C871.193 344.777 878.053 340.172 879.383 337.994" stroke="black" stroke-width="3.85409" stroke-linecap="round" stroke-linejoin="round"/>
<path d="M1034.78 611.327C1034.78 611.327 1099.84 477.359 1103.21 459.052C1106.58 440.745 1093.09 414.229 1081.53 393.995C1069.97 373.761 1029.96 282.207 1028.04 275.944C1026.11 269.681 1024.18 264.863 1024.18 264.863C1024.18 264.863 1006.36 280.28 998.167 284.134C989.977 287.988 972.152 310.631 972.152 310.631C972.152 310.631 1001.06 367.498 1012.14 387.732C1023.22 407.966 1034.3 435.445 1034.3 438.336C1034.3 441.227 1010.21 491.831 1003.95 504.357C997.685 516.882 978.415 555.924 977.933 564.596C977.432 573.248 1034.78 611.327 1034.78 611.327Z" fill="#808080" stroke="#231F20" stroke-width="3.85409" stroke-miterlimit="10"/>
<path d="M970.494 286.368C970.494 286.368 960.801 284.596 954.114 277.755C947.408 270.914 943.053 265.364 943.053 265.364L961.533 246.382L965.272 247.519C965.272 247.519 971.573 239.406 977.836 232.084C984.099 224.761 1001.83 209.942 1012.18 204.97C1022.52 199.998 1029.23 196.876 1031.95 198.591C1034.66 200.287 1037.59 206.781 1037.59 206.781C1037.59 206.781 1023.33 219.558 1016.86 227.073C1010.38 234.589 1005.51 257.097 1005.18 260.064C1004.87 263.032 1004.41 269.198 1000.84 269.044C997.28 268.89 989.841 270.393 988.126 268.543C986.411 266.674 984.349 268.196 980.457 271.029C976.564 273.862 970.494 286.368 970.494 286.368Z" fill="#808080" stroke="#231F20" stroke-width="3.85409" stroke-miterlimit="10"/>
<path d="M993.946 256.365C993.946 256.365 1002.17 257.271 1004.56 256.462" stroke="black" stroke-width="3.85409" stroke-linecap="round" stroke-linejoin="round"/>
<path d="M996.164 248.193C996.164 248.193 1004.39 249.099 1006.78 248.29" stroke="black" stroke-width="3.85409" stroke-linecap="round" stroke-linejoin="round"/>
<path d="M998.994 240.871C998.994 240.871 1007.22 241.777 1009.61 240.967" stroke="black" stroke-width="3.85409" stroke-linecap="round" stroke-linejoin="round"/>
<path d="M994.331 1155.79C994.331 1155.79 1051.49 1132.26 1064.9 1089.97C1070.91 1071.02 1104.6 1024.52 1113.46 1018.2C1122.33 1011.88 1133 1003.6 1133 1003.6C1133 1003.6 1113.62 1026.99 1109.76 1062.45C1105.91 1097.89 1099.53 1108.23 1099.53 1108.23C1099.53 1108.23 1111.8 1103.4 1124.58 1087.71C1137.36 1072.03 1156.72 1056.67 1156.72 1056.67C1156.72 1056.67 1140.83 1099.58 1136.91 1117C1133 1134.42 1116.26 1149.53 1116.26 1149.53C1116.26 1149.53 1128.05 1150.26 1138.15 1143.17C1141.71 1140.67 1149.88 1131.19 1149.88 1131.19C1149.88 1131.19 1142.25 1155.64 1124.18 1161.84C1106.08 1168.05 1081.36 1160.88 1059.06 1155.81C1036.75 1150.74 994.331 1155.79 994.331 1155.79Z" fill="white"/>
<path d="M839.05 714.307C839.05 714.307 843.694 697.426 856.354 681.374C869.015 665.322 878.727 656.477 882.948 636.628C887.168 616.78 904.049 573.305 904.897 562.321C905.745 551.337 913.337 531.508 913.337 531.508C913.337 531.508 923.897 545.864 958.507 556.001C993.117 566.137 1028.17 591.458 1032.39 598.646C1036.61 605.834 1041.68 611.731 1041.68 611.731C1041.68 611.731 1018.46 670.833 1015.09 692.358C1011.71 713.883 1010.44 730.36 1018.46 753.561C1026.47 776.763 1031.54 853.19 1028.17 879.783C1024.8 906.376 1018.03 929.597 1014.66 938.885C1011.29 948.174 1006.64 983.207 1006.64 983.207C1006.64 983.207 990.188 991.648 971.187 986.156C952.186 980.664 944.17 969.275 944.17 969.275C944.17 969.275 958.95 926.629 960.627 908.072C962.323 889.495 963.151 859.53 958.102 844.325C953.034 829.121 947.542 813.936 947.542 813.936C947.542 813.936 939.526 820.276 925.169 813.936C910.813 807.596 886.513 743.001 877.648 738.357C868.765 733.713 839.05 714.307 839.05 714.307Z" fill="#808080" stroke="#231F20" stroke-width="3.85409" stroke-miterlimit="10"/>
<path d="M892.971 762.387C893.684 762.619 920.412 775.742 920.412 776.686C920.412 777.63 942.381 824.515 942.381 824.515C942.381 824.515 917.194 813.685 905.67 804.513C894.147 795.34 884.955 769.922 886.612 765.914C888.269 761.925 892.971 762.387 892.971 762.387Z" fill="#808080" stroke="#231F20" stroke-width="3.85409" stroke-miterlimit="10"/>
<path d="M612.813 653.278C612.813 653.278 601.714 689.371 633.992 711.186C662.396 730.379 672.166 741.845 681.57 755.007C689.182 765.663 699.222 788.402 699.222 788.402L742.157 721.091C742.157 721.091 738.727 698.506 718.126 679.389C697.526 660.273 678.892 606.701 678.892 606.701L612.813 653.278Z" fill="#FFEC00" stroke="black" stroke-width="3.85409" stroke-linecap="round" stroke-linejoin="round"/>
<path d="M632.857 664.473L669.317 638.227" stroke="black" stroke-width="3.85409" stroke-linecap="round" stroke-linejoin="round"/>
<path d="M640.083 695.171L689.319 658.576" stroke="black" stroke-width="3.85409" stroke-linecap="round" stroke-linejoin="round"/>
<path d="M675.228 691.471L698.18 673.588" stroke="black" stroke-width="3.85409" stroke-linecap="round" stroke-linejoin="round"/>
<path d="M787.539 1104.94C787.539 1104.94 815.327 1111.88 833.19 1093.03C851.054 1074.18 879.825 1031.5 879.825 1031.5L954.247 1101.95C954.247 1101.95 899.558 1146.93 880.808 1160.5C846.834 1185.09 821.262 1182.33 821.262 1182.33L787.539 1104.94Z" fill="#FFEC00" stroke="black" stroke-width="3.85409" stroke-linecap="round" stroke-linejoin="round"/>
<path d="M880.176 1064.12L916.365 1100.66" stroke="black" stroke-width="3.85409" stroke-linecap="round" stroke-linejoin="round"/>
<path d="M860.632 1083.3L896.822 1119.84" stroke="black" stroke-width="3.85409" stroke-linecap="round" stroke-linejoin="round"/>
<path d="M849.416 1096.31L865.7 1114.04" stroke="black" stroke-width="3.85409" stroke-linecap="round" stroke-linejoin="round"/>
<path d="M1182.87 547.29L1186.51 457.99L1286.62 556.674L1273.5 677.924L1169.11 739.821L1090.35 578.546L1182.87 547.29Z" stroke="black" stroke-width="3.85409" stroke-linecap="round" stroke-linejoin="round"/>
<path d="M1182.87 547.289L1273.5 677.924" stroke="black" stroke-width="3.85409" stroke-linecap="round" stroke-linejoin="round"/>
<path d="M1196.59 489.537L1193.97 543.456L1261.03 637.669L1266.71 560.549L1196.59 489.537Z" stroke="black" stroke-width="3.85409" stroke-linecap="round" stroke-linejoin="round"/>
<path d="M1174.76 573.498L1230.55 662.855" stroke="black" stroke-width="3.85409" stroke-linecap="round" stroke-linejoin="round"/>
<path d="M1162.58 593.211L1200.77 660.754" stroke="black" stroke-width="3.85409" stroke-linecap="round" stroke-linejoin="round"/>
<path d="M1144.23 601.902L1182.41 669.445" stroke="black" stroke-width="3.85409" stroke-linecap="round" stroke-linejoin="round"/>
<path d="M831.205 784.434C831.205 784.434 834.25 789.309 834.847 793.067C835.445 796.825 834.655 798.212 834.655 798.212L842.363 796.439" stroke="black" stroke-width="3.85409" stroke-linecap="round" stroke-linejoin="round"/>
<path d="M856.928 812.609C857.776 810.915 856.55 808.584 854.189 807.402C851.829 806.221 849.228 806.637 848.38 808.331C847.532 810.025 848.758 812.356 851.119 813.538C853.479 814.719 856.08 814.303 856.928 812.609Z" stroke="black" stroke-width="3.85409" stroke-linecap="round" stroke-linejoin="round"/>
<path d="M800.892 784.605L847.257 755.584C847.257 755.584 852.826 763.581 852.21 769.305C851.593 775.028 839.53 781.214 836.909 780.751C834.288 780.289 825.308 773.178 823.612 774.257C821.916 775.336 826.85 788.17 825.616 789.866C824.383 791.562 812.647 797.806 809.545 797.497C804.766 797.015 800.892 784.605 800.892 784.605Z" stroke="black" stroke-width="3.85409" stroke-linecap="round" stroke-linejoin="round"/>
<path d="M887.782 774.085C887.782 774.085 883.523 771.233 884.044 767.321C884.564 763.409 885.547 752.772 879.496 750.344C873.715 748.032 870.593 752.599 868.627 755.971C866.662 759.343 859.763 762.812 852.132 758.38C846.832 755.316 825.365 739.206 825.365 739.206C825.365 739.206 821.916 756.144 811.317 759.305C802.452 761.945 805.806 777.265 800.622 780.522C786.092 789.637 766.687 769.614 766.687 769.614C766.687 769.614 783.606 765.028 786.94 752.348C791.372 735.448 798.174 710.223 824.305 703.999C850.436 697.774 864.137 703.652 871.421 713.248C878.706 722.845 880.671 724.984 886.722 730.322C892.773 735.66 897.398 741.518 899.884 749.535C899.884 749.535 901.483 760.557 897.745 766.069C894.006 771.58 887.782 774.085 887.782 774.085Z" fill="black"/>
<path d="M878.63 826.48C878.63 826.48 887.957 832.569 894.047 833.649C900.136 834.728 907.671 828.638 907.671 828.638L894.047 811.43L878.63 826.48Z" fill="#45D62F" stroke="black" stroke-width="3.85409" stroke-linecap="round" stroke-linejoin="round"/>
<path d="M902.987 827.561C902.987 827.561 915.455 825.731 924.647 823.399C943.089 818.716 959.199 804.842 968.082 798.097C981.206 788.096 1001.83 773.411 1021.5 755.606C1028.28 749.478 1035.24 732.23 1035.24 732.23L1068.21 712.17L1076.81 742.983C1076.81 742.983 1065.34 771.658 1038.82 791.372C1012.31 811.085 965.365 835.096 933.453 837.235C901.561 839.393 894.026 833.651 894.026 833.651L902.987 827.561Z" fill="#45D62F" stroke="black" stroke-width="3.85409" stroke-linecap="round" stroke-linejoin="round"/>
<path d="M971.359 1053.45C971.359 1053.45 971.167 1023.73 969.471 1015.39" stroke="black" stroke-width="3.85409" stroke-linecap="round" stroke-linejoin="round"/>
<path d="M982.055 1051.1C982.055 1051.1 981.862 1021.38 980.166 1013.04" stroke="black" stroke-width="3.85409" stroke-linecap="round" stroke-linejoin="round"/>
</svg>
