<svg width="1840" height="1380" viewBox="0 0 1840 1380" fill="none" xmlns="http://www.w3.org/2000/svg">
<path d="M569.724 863.943C569.724 863.943 582.231 857.97 589.303 857.97C596.375 857.97 680.337 855.734 680.337 855.734L743.544 876.411C743.544 876.411 770.041 796.901 772.083 791.062C774.126 785.224 784.898 743.002 784.898 743.002L968.989 769.499L990.244 936.111C990.244 936.111 993.732 1009.51 991.111 1045.91C988.49 1082.32 971.59 1170.29 971.59 1170.29H521.124V930.349L569.724 863.943Z" fill="white"/>
<path d="M793.128 352.177C792.338 353.352 792.742 398.291 794.303 414.459C795.883 430.627 801.395 451.901 808.101 461.363C814.807 470.825 822.284 475.546 821.898 482.252C821.513 488.959 824.269 504.722 841.207 515.764C858.146 526.806 898.364 488.168 898.364 488.168C898.364 488.168 916.497 446.39 917.673 434.558C918.848 422.726 920.428 392.375 914.917 380.158C909.406 367.94 897.959 336.394 879.055 335.219C860.131 334.043 793.128 352.177 793.128 352.177Z" fill="white"/>
<path d="M975.613 782.697C975.613 782.697 1003.86 972.511 987.753 1083.37C979.948 1137.06 971.373 1169.8 971.373 1169.8" stroke="black" stroke-width="3.85409" stroke-miterlimit="10" stroke-linecap="round" stroke-linejoin="round"/>
<path d="M757.07 641.311C757.07 641.311 723.231 679.428 695.385 686.289C667.54 693.149 649.541 695.288 649.541 695.288L713.789 529.504C713.789 529.504 745.913 505.512 757.475 501.658C769.056 497.804 757.07 641.311 757.07 641.311Z" fill="#45D62F" stroke="black" stroke-width="3.85409" stroke-linecap="round" stroke-linejoin="round"/>
<path d="M926.228 498.805C926.228 498.805 932.819 506.437 948.775 511.64C964.731 516.843 988.684 523.433 1001.86 542.877C1015.05 562.302 1029.98 608.454 1029.98 631.714C1029.98 654.973 1034.84 749.341 1034.49 764.95C1034.14 780.559 1034.49 825.671 1031.37 840.586C1028.25 855.502 1017.84 882.23 1012.29 889.514C1006.74 896.798 997.028 909.632 995.294 917.283C993.559 924.914 986.969 948.52 977.256 958.579C967.544 968.639 943.244 980.779 943.244 980.779L906.804 1009.24C906.804 1009.24 909.925 982.879 901.254 962.742C892.582 942.604 882.87 932.545 882.87 932.545L899.172 925.261C899.172 925.261 900.213 906.53 910.966 891.942C921.719 877.374 935.594 866.968 942.897 851.686C950.181 836.424 956.425 779.171 956.425 779.171C956.425 779.171 913.047 779.171 893.623 775.703C874.198 772.234 831.514 771.54 812.783 764.95C794.052 758.359 783.28 753.156 783.28 753.156C783.28 753.156 782.933 734.425 774.608 721.225C766.283 708.025 755.53 681.316 752.756 667.441C749.981 653.567 743.737 585.214 740.962 562.995C738.187 540.796 738.187 509.905 750.674 502.968C763.162 496.03 789.196 492.562 802.724 490.134C806.27 489.498 810.567 490.577 823.632 491.367C829.529 491.714 839.974 508.306 846.718 508.807C852.673 509.25 869.785 495.568 870.864 495.664C901.022 498.169 926.228 498.805 926.228 498.805Z" fill="#45D62F" stroke="black" stroke-width="3.85409" stroke-linecap="round" stroke-linejoin="round"/>
<path d="M823.956 311.053C823.956 311.053 834.921 276.964 883.56 281.704C915.24 284.787 944.84 309.242 939.945 359.133C936.091 398.464 920.077 392.163 920.077 392.163L823.956 311.053Z" fill="black"/>
<path d="M813.049 307.258C813.049 307.258 827.675 283.574 862.535 288.411C906.568 294.52 923.064 321.21 924.278 354.856C925.203 380.254 813.049 307.258 813.049 307.258Z" fill="#E72A8B"/>
<path d="M881.786 389.003C879.184 372.912 887.875 360.579 869.164 351.117C849.816 341.347 842.667 351.04 817.711 360.598C806.612 364.857 794.356 361.33 794.356 361.33C794.356 361.33 778.053 343.756 797.111 317.163C831.817 268.736 944.261 316.604 933.565 388.984C926.32 438.008 938.634 457.548 966.325 461.922C973.59 463.059 951.025 498.536 926.474 502.679C885.505 509.578 883.038 488.573 883.038 488.573L893.04 442.922L899.437 439.723L914.295 425.617L915.605 408.89L903.195 400.43L890.342 409.507C890.323 409.526 884.214 404.053 881.786 389.003Z" fill="black"/>
<path d="M890.212 411.433C890.212 411.433 895.434 399.948 905.782 401.624C916.13 403.301 918.848 419.218 912.585 428.333C908.114 434.846 899.943 439.028 895.646 440.878C893.873 441.649 892.62 443.229 892.293 445.118L885.49 484.41C883.294 497.09 869.438 508.768 856.585 509.327C834.828 510.252 823.555 505.107 823.555 505.107C823.555 505.107 820.433 466.913 823.979 467.78C847.932 473.522 860.92 462.789 860.882 461.979" stroke="black" stroke-width="3.85409" stroke-miterlimit="10" stroke-linecap="round" stroke-linejoin="round"/>
<path d="M842.379 433.711C842.379 433.711 830.585 434.193 826.654 434.347C823.474 434.482 813.936 434.867 813.936 434.867C813.936 434.867 816.306 447.663 829.082 447.277C841.646 446.892 842.379 433.711 842.379 433.711Z" stroke="black" stroke-width="3.85409" stroke-miterlimit="10" stroke-linecap="round" stroke-linejoin="round"/>
<path d="M803.528 385.9C803.548 386.228 801.987 393.107 809.232 393.223C815.611 393.319 815.283 385.881 815.283 385.881" fill="#45D62F"/>
<path d="M803.528 385.9C803.548 386.228 801.987 393.107 809.232 393.223C815.611 393.319 815.283 385.881 815.283 385.881" stroke="black" stroke-width="3.85409" stroke-linecap="round" stroke-linejoin="round"/>
<path d="M847.904 386.189C848.213 386.286 846.343 393.801 853.589 393.917C859.967 394.013 859.389 387.596 859.389 387.596" fill="#45D62F"/>
<path d="M847.904 386.189C848.213 386.286 846.343 393.801 853.589 393.917C859.967 394.013 859.389 387.596 859.389 387.596" stroke="black" stroke-width="3.85409" stroke-linecap="round" stroke-linejoin="round"/>
<path d="M840.987 391.662C840.987 391.662 848.811 377.807 866.848 391.316" stroke="black" stroke-width="3.85409" stroke-miterlimit="10" stroke-linecap="round" stroke-linejoin="round"/>
<path d="M823.977 467.78C812.974 464.581 805.092 459.667 797.731 436.118C790.369 412.55 791.41 355.491 795.303 353.062" stroke="black" stroke-width="3.85409" stroke-miterlimit="10" stroke-linecap="round" stroke-linejoin="round"/>
<path d="M805.362 455.1C805.362 455.1 804.687 465.409 793.645 473.676C786.342 479.149 772.197 479.303 772.197 479.303C772.197 479.303 777.497 492.195 795.996 499.711C807.886 504.528 823.264 500.713 823.264 500.713L822.57 467.664L805.362 455.1Z" fill="black"/>
<path d="M797.788 389.271C797.788 389.271 804.379 382.796 812.376 384.723C816.943 385.822 823.842 390.254 821.279 401.508C819.467 409.486 815.767 418.813 815.767 418.813C815.767 418.813 825.981 422.802 831.454 419.931" stroke="black" stroke-width="3.85409" stroke-miterlimit="10" stroke-linecap="round" stroke-linejoin="round"/>
<path d="M823.453 482.117L846.944 508.441L799.423 545.999L804.876 496.32L823.453 482.117Z" fill="#45D62F" stroke="black" stroke-width="3.85409" stroke-linecap="round" stroke-linejoin="round"/>
<path d="M846.945 508.441L879.512 555.962L933.99 500.329L902.444 468.898L846.945 508.441Z" fill="#45D62F" stroke="black" stroke-width="3.85409" stroke-linecap="round" stroke-linejoin="round"/>
<path d="M844.786 512.314C844.786 512.314 841.317 618.919 847.098 660.061C852.899 701.203 858.102 724.964 860.434 740.592C862.746 756.24 862.996 771.965 862.996 771.965" stroke="black" stroke-width="3.85409" stroke-miterlimit="10" stroke-linecap="round" stroke-linejoin="round"/>
<path d="M899.171 925.262C899.171 925.262 926.824 926.245 937.885 944.898C948.966 963.552 943.223 980.78 943.223 980.78" stroke="black" stroke-width="3.85409" stroke-miterlimit="10" stroke-linecap="round" stroke-linejoin="round"/>
<path d="M956.421 779.171C956.421 779.171 962.24 750.785 960.101 724.231C957.962 697.676 948.385 629.69 948.385 614.697" stroke="black" stroke-width="3.85409" stroke-miterlimit="10" stroke-linecap="round" stroke-linejoin="round"/>
<path d="M805.576 775.471L788.117 790.232L801.317 818.425C801.317 818.425 832.189 810.813 853.675 814.84C875.162 818.868 910.947 833.86 910.947 833.86L935.555 813.723L923.916 787.553C923.916 787.553 886.782 792.255 862.617 787.322C838.471 782.408 805.345 775.471 805.576 775.471Z" stroke="black" stroke-width="3.85409" stroke-miterlimit="10" stroke-linecap="round" stroke-linejoin="round"/>
<path d="M916.417 817.019C921.451 817.019 925.532 812.938 925.532 807.904C925.532 802.87 921.451 798.789 916.417 798.789C911.383 798.789 907.302 802.87 907.302 807.904C907.302 812.938 911.383 817.019 916.417 817.019Z" stroke="black" stroke-width="3.85409" stroke-miterlimit="10" stroke-linecap="round" stroke-linejoin="round"/>
<path d="M806.73 804.704C811.764 804.704 815.845 800.624 815.845 795.59C815.845 790.556 811.764 786.475 806.73 786.475C801.696 786.475 797.615 790.556 797.615 795.59C797.615 800.624 801.696 804.704 806.73 804.704Z" stroke="black" stroke-width="3.85409" stroke-miterlimit="10" stroke-linecap="round" stroke-linejoin="round"/>
<path d="M500.37 507.187L538.526 445.561L652.973 455.099L747.629 529.946L522.377 962.086" fill="white"/>
<path d="M500.37 507.187L538.526 445.561L652.973 455.099L747.629 529.946L522.377 962.086" stroke="black" stroke-width="3.85409" stroke-miterlimit="10" stroke-linecap="round" stroke-linejoin="round"/>
<path d="M508.811 493.082L627.844 504.297L721.942 576.889" stroke="black" stroke-width="3.85409" stroke-miterlimit="10" stroke-linecap="round" stroke-linejoin="round"/>
<path d="M652.973 455.1C652.973 457.296 514.303 713.362 514.303 713.362" stroke="black" stroke-width="3.85409" stroke-miterlimit="10" stroke-linecap="round" stroke-linejoin="round"/>
<path d="M687.075 552.475L519.653 855.715" stroke="black" stroke-width="3.85409" stroke-miterlimit="10" stroke-linecap="round" stroke-linejoin="round"/>
<path d="M571.574 871.266L632.893 894.699" stroke="black" stroke-width="3.85409" stroke-miterlimit="10" stroke-linecap="round" stroke-linejoin="round"/>
<path d="M543.635 921.041L660.915 888.57C660.915 888.57 675.656 907.224 701.595 920.713C724.411 932.565 799.199 937.093 799.199 937.093L550.996 1017.05L520.818 1004.52" stroke="black" stroke-width="3.85409" stroke-miterlimit="10" stroke-linecap="round" stroke-linejoin="round"/>
<path d="M776.263 945.514L800.967 953.877L800.601 965.131L556.868 1038.51L526.363 1026.53" stroke="black" stroke-width="3.85409" stroke-miterlimit="10" stroke-linecap="round" stroke-linejoin="round"/>
<path d="M800.963 953.877L557.597 1028.34L524.548 1015.99" stroke="black" stroke-width="3.85409" stroke-miterlimit="10" stroke-linecap="round" stroke-linejoin="round"/>
<path d="M576.601 859.608L586.39 858.336L679.929 856.197L867.893 920.83L864.906 951.027L898.071 962.512V1025.45L524.301 1158.53" stroke="black" stroke-width="3.85409" stroke-miterlimit="10" stroke-linecap="round" stroke-linejoin="round"/>
<path d="M526.87 1056.05L559.611 1074.76L563.002 1144.5" stroke="black" stroke-width="3.85409" stroke-miterlimit="10" stroke-linecap="round" stroke-linejoin="round"/>
<path d="M525.153 1084.55L898.075 962.512" stroke="black" stroke-width="3.85409" stroke-miterlimit="10" stroke-linecap="round" stroke-linejoin="round"/>
<path d="M863.207 1036.91L862.359 974.844L803.681 956.557" stroke="black" stroke-width="3.85409" stroke-miterlimit="10" stroke-linecap="round" stroke-linejoin="round"/>
<path d="M882.847 932.545C882.847 932.545 881.536 916.069 878.472 914.624C874.406 912.716 868.933 904.603 866.775 902.445C864.636 900.306 857.699 901.635 856.504 905.547C854.827 911.039 856.504 916.281 856.504 916.281" stroke="black" stroke-width="3.85409" stroke-miterlimit="10" stroke-linecap="round" stroke-linejoin="round"/>
<path d="M907.067 999.027C907.067 999.027 899.282 1003.9 899.282 1003.46" stroke="black" stroke-width="3.85409" stroke-miterlimit="10" stroke-linecap="round" stroke-linejoin="round"/>
<path d="M586.388 858.335C586.696 855.464 864.904 951.026 864.904 951.026" stroke="black" stroke-width="3.85409" stroke-miterlimit="10" stroke-linecap="round" stroke-linejoin="round"/>
<path d="M878.507 998.731C878.708 995.651 877.062 993.036 874.832 992.891C872.602 992.746 870.631 995.125 870.431 998.205C870.23 1001.28 871.875 1003.9 874.106 1004.04C876.336 1004.19 878.307 1001.81 878.507 998.731Z" stroke="black" stroke-width="3.85409" stroke-miterlimit="10" stroke-linecap="round" stroke-linejoin="round"/>
<path d="M857.706 1006.27C858.173 1003.22 856.761 1000.47 854.552 1000.13C852.343 999.791 850.173 1001.99 849.705 1005.04C849.237 1008.09 850.649 1010.84 852.859 1011.18C855.068 1011.52 857.238 1009.32 857.706 1006.27Z" stroke="black" stroke-width="3.85409" stroke-miterlimit="10" stroke-linecap="round" stroke-linejoin="round"/>
<path d="M578.722 1098.56C579.19 1095.51 577.778 1092.76 575.569 1092.42C573.359 1092.09 571.189 1094.28 570.722 1097.34C570.254 1100.39 571.666 1103.13 573.875 1103.47C576.085 1103.81 578.255 1101.61 578.722 1098.56Z" stroke="black" stroke-width="3.85409" stroke-miterlimit="10" stroke-linecap="round" stroke-linejoin="round"/>
<path d="M539.262 1111.29C539.73 1108.24 538.318 1105.49 536.109 1105.15C533.899 1104.81 531.729 1107.01 531.262 1110.06C530.794 1113.11 532.206 1115.86 534.415 1116.2C536.625 1116.54 538.795 1114.34 539.262 1111.29Z" stroke="black" stroke-width="3.85409" stroke-miterlimit="10" stroke-linecap="round" stroke-linejoin="round"/>
<path d="M867.891 920.83L799.905 927.941" stroke="black" stroke-width="3.85409" stroke-miterlimit="10" stroke-linecap="round" stroke-linejoin="round"/>
<path d="M772.135 917.958C772.347 917.303 821.968 914.277 821.968 914.277L748.529 888.281C748.529 888.281 688.096 890.883 687.865 890.228" stroke="black" stroke-width="3.85409" stroke-miterlimit="10" stroke-linecap="round" stroke-linejoin="round"/>
<path d="M825.056 1051.42L892.542 1080.1C897.802 1082.35 901.194 1087.54 901.194 1093.24V1103.97L718.028 1171.27" stroke="black" stroke-width="3.85409" stroke-miterlimit="10" stroke-linecap="round" stroke-linejoin="round"/>
<path d="M898.673 1089.58L682.034 1171.27" stroke="black" stroke-width="3.85409" stroke-miterlimit="10" stroke-linecap="round" stroke-linejoin="round"/>
<path d="M783.277 753.137C783.277 753.137 773.063 793.046 759.671 828.118C746.278 863.19 743.117 876.583 743.117 876.583" stroke="black" stroke-width="3.85409" stroke-miterlimit="10" stroke-linecap="round" stroke-linejoin="round"/>
<path d="M807.175 379.888L565.658 313.906" stroke="#45D62F" stroke-width="3.85409" stroke-miterlimit="10" stroke-linecap="round" stroke-linejoin="round"/>
<path d="M858.142 381.951L617.223 313.83" stroke="#45D62F" stroke-width="3.85409" stroke-miterlimit="10" stroke-linecap="round" stroke-linejoin="round"/>
<path d="M789.27 393.839L638.306 392.49" stroke="#45D62F" stroke-width="3.85409" stroke-miterlimit="10" stroke-linecap="round" stroke-linejoin="round"/>
<path d="M860.4 397.752L710.148 412.243" stroke="#45D62F" stroke-width="3.85409" stroke-miterlimit="10" stroke-linecap="round" stroke-linejoin="round"/>
<path d="M1244.33 202.967C1246.88 202.967 1248.95 200.896 1248.95 198.342C1248.95 195.787 1246.88 193.717 1244.33 193.717C1241.77 193.717 1239.7 195.787 1239.7 198.342C1239.7 200.896 1241.77 202.967 1244.33 202.967Z" fill="black"/>
<path d="M1242.86 198.418L1229.06 218.151L1239.41 221.754L1244.57 199.709L1242.86 198.418Z" fill="black"/>
<path d="M1125.25 234.242C1125.25 234.242 1024.2 230.504 1013.37 239.06C1002.54 247.635 1362.95 416.213 1362.95 416.213C1362.95 416.213 1373.59 399.14 1342.22 360.425C1310.85 321.711 1285.85 300.687 1285.85 300.687C1285.85 300.687 1225.53 243.357 1202.56 236.979C1179.59 230.6 1125.25 234.242 1125.25 234.242Z" fill="#808080" stroke="#231F20" stroke-width="3.85409" stroke-miterlimit="10" stroke-linecap="round" stroke-linejoin="round"/>
<path d="M1127.37 234.588C1127.37 234.588 1167.92 192.02 1230.89 212.254C1293.85 232.488 1288.47 302.671 1288.47 302.671C1288.47 302.671 1269.51 284.133 1223.44 260.835C1168.32 232.97 1127.37 234.588 1127.37 234.588Z" fill="white" stroke="black" stroke-width="3.85409" stroke-miterlimit="10" stroke-linecap="round" stroke-linejoin="round"/>
<path d="M1364.49 417.428C1355.26 434.02 1265.67 414.519 1166.62 367.672C1067.53 320.806 999.413 263.13 1008.2 242.954C1015.77 225.552 1109.27 239.813 1207.67 288.047C1312.69 339.537 1375.55 397.58 1364.49 417.428Z" fill="#FFEC00" stroke="black" stroke-width="3.85409" stroke-linecap="round" stroke-linejoin="round"/>
<path d="M1103.25 304.08C1103.25 304.08 1135.79 301.151 1187.81 329.132C1235.89 354.993 1251.94 380.873 1251.94 380.873C1251.94 380.873 1228.95 385.902 1212.93 385.517C1171.66 384.515 1138.43 372.779 1112 327.995C1103.05 312.848 1103.25 304.08 1103.25 304.08Z" fill="white" stroke="black" stroke-width="3.85409" stroke-miterlimit="10" stroke-linecap="round" stroke-linejoin="round"/>
<path d="M1113.79 347.09L978.275 450.36" stroke="#45D62F" stroke-width="3.85409" stroke-miterlimit="10" stroke-linecap="round" stroke-linejoin="round"/>
<path d="M1000.65 511.871L1119.68 362.352" stroke="#45D62F" stroke-width="3.85409" stroke-miterlimit="10" stroke-linecap="round" stroke-linejoin="round"/>
<path d="M1175.8 392.338L1120.46 888.186" stroke="#45D62F" stroke-width="3.85409" stroke-miterlimit="10" stroke-linecap="round" stroke-linejoin="round"/>
<path d="M1199.19 390.66L1249.51 693.862" stroke="#45D62F" stroke-width="3.85409" stroke-miterlimit="10" stroke-linecap="round" stroke-linejoin="round"/>
</svg>
