<svg width="1840" height="1380" viewBox="0 0 1840 1380" fill="none" xmlns="http://www.w3.org/2000/svg">
<path d="M984.363 603.578H830.7V1151.84H984.363V603.578Z" fill="#A7CCE9"/>
<path d="M845.712 603.578L833.514 584.173L833.995 422.204C834.034 409.409 844.421 399.061 857.216 399.061H957.943C970.681 399.061 981.048 409.332 981.144 422.069L982.609 584.173L968.195 603.578H845.712Z" fill="#347CE1"/>
<path d="M890.401 467.586H972.821V542.317C972.821 542.317 956.441 545.901 937.498 545.901C918.556 545.901 890.401 544.88 890.401 544.88V467.586Z" fill="#F3B63F"/>
<path d="M864.732 744.85V633.352H951.353V744.349C951.353 744.369 865.233 744.369 864.732 744.85Z" stroke="#031F43" stroke-width="3.85409" stroke-linecap="round" stroke-linejoin="round"/>
<path d="M871.708 744.657V729.51C871.708 729.51 886.45 718.564 907.07 718.564C927.689 718.564 944.031 728.874 944.031 728.874V744.348L871.708 744.657Z" stroke="#031F43" stroke-width="3.85409" stroke-linecap="round" stroke-linejoin="round"/>
<path d="M896.509 744.639H884.234V782.89H896.509V744.639Z" stroke="#031F43" stroke-width="3.85409" stroke-linecap="round" stroke-linejoin="round"/>
<path d="M930.407 744.639H918.132V782.89H930.407V744.639Z" stroke="#031F43" stroke-width="3.85409" stroke-linecap="round" stroke-linejoin="round"/>
<path d="M864.732 744.851L870.61 884.196H943.394L950.91 744.369" stroke="#031F43" stroke-width="3.85409" stroke-linecap="round" stroke-linejoin="round"/>
<path d="M870.608 884.193V1151.57H942.487V884.193" stroke="#031F43" stroke-width="3.85409" stroke-linecap="round" stroke-linejoin="round"/>
<path d="M990.26 1151.74H823.648V1165.77H990.26V1151.74Z" fill="#347CE1"/>
<path d="M1093.35 537.019L1084.58 536.845C1084.58 536.845 1082.96 532.201 1082.44 531.835C1081.9 531.469 1050.62 532.008 1049.72 534.687C1048.83 537.366 1047.75 566.329 1047.92 574.384C1048.1 582.439 1048.91 597.162 1048.91 597.162L1083.15 596.487L1082.78 589.588C1082.78 589.588 1085.29 591.554 1089.93 590.668C1094.58 589.781 1101.55 586.197 1102.44 578.681C1103.33 571.166 1103.69 546.134 1101.55 543.108C1099.43 540.044 1093.35 537.019 1093.35 537.019Z" fill="white"/>
<path d="M1132.08 1119.1C1132.08 1119.1 1108.33 1133.09 1093.92 1136.91C1079.51 1140.72 1061.28 1144.54 1059.16 1153.02C1057.04 1161.5 1058.31 1163.62 1058.31 1163.62C1058.31 1163.62 1065.94 1171.25 1108.33 1165.74C1150.73 1160.22 1203.67 1159.88 1203.67 1159.88C1206.69 1158.41 1264.19 1105.75 1199.5 1122.49C1186.36 1125.88 1132.08 1119.1 1132.08 1119.1Z" fill="#031F43"/>
<path d="M1213.5 1143.69C1213.5 1143.69 1193.15 1172.1 1183.82 1178.88C1174.49 1185.66 1168.98 1196.26 1168.98 1200.08C1168.98 1203.89 1172.8 1211.1 1192.3 1208.98C1211.8 1206.86 1241.48 1197.53 1256.76 1190.33C1272.04 1183.12 1279.65 1178.88 1284.32 1175.49C1288.98 1172.1 1286.01 1155.99 1286.01 1155.99L1213.5 1143.69Z" fill="#031F43"/>
<path d="M1123.33 641.541C1123.33 641.541 1115.52 658.846 1113.98 693.147C1112.44 727.449 1113.46 877.411 1117.57 928.093C1121.65 978.774 1131.9 1080.64 1130.88 1090.87C1129.86 1101.1 1124.74 1118.5 1124.74 1118.5C1124.74 1118.5 1130.36 1130.28 1145.2 1133.86C1160.04 1137.45 1190.1 1138.01 1190.1 1138.01L1200.49 1136.43C1200.49 1136.43 1197.42 1141.55 1206.11 1146.16C1214.82 1150.76 1268.57 1162.54 1279.3 1162.54C1290.04 1162.54 1291.08 1155.89 1291.08 1155.89C1291.08 1155.89 1287.49 1102.14 1286.99 1081.66C1286.47 1061.19 1291.08 934.76 1292.12 902C1293.16 869.241 1298.25 719.278 1295.7 704.941C1293.16 690.603 1275.74 596.93 1275.74 596.93L1123.33 641.541Z" fill="#347CE1" stroke="#031F43" stroke-width="3.85409" stroke-miterlimit="10" stroke-linecap="round" stroke-linejoin="round"/>
<path d="M1231.21 723.828C1231.21 723.828 1220.11 767.341 1224.17 772.987C1228.24 778.633 1234.13 778.19 1234.13 778.19C1234.13 778.19 1237.49 782.699 1243.79 784.28C1250.11 785.86 1257.78 781.794 1257.78 781.794C1257.78 781.794 1263.43 781.794 1267.49 779.77C1271.56 777.747 1274.49 773.681 1274.49 769.846C1274.49 766.011 1279.46 733.733 1279.23 732.827C1279 731.922 1231.21 723.828 1231.21 723.828Z" fill="white" stroke="#031F43" stroke-width="3.85409" stroke-linecap="round" stroke-linejoin="round"/>
<path d="M1162.68 378.558C1162.68 378.558 1137.22 381.738 1123.77 407.907C1110.32 434.077 1090.16 530.988 1090.16 530.988L1085.62 536.942C1085.62 536.942 1100.84 551.838 1098.09 568.623C1095.33 585.407 1091.71 590.071 1091.71 590.071L1111.25 586.679L1123.7 628.573C1123.7 628.573 1120.36 637.476 1123.33 641.542C1126.3 645.608 1144.84 661.564 1185.98 650.06C1227.12 638.555 1245.29 630.038 1245.29 630.038L1238.62 690.836C1238.62 690.836 1233.44 694.536 1233.44 697.504C1233.44 700.471 1231.22 723.827 1231.22 723.827C1231.22 723.827 1240.49 730.495 1257.91 733.829C1275.33 737.162 1281.64 737.162 1281.64 737.162C1281.64 737.162 1294.61 708.623 1295.72 704.923C1296.84 701.223 1303.51 678.233 1307.21 666.382C1310.91 654.511 1333.53 575.194 1333.15 531.836C1332.78 488.458 1336.85 452.518 1312.39 417.658C1287.94 382.798 1251.23 366.129 1251.23 366.129L1181.97 381.931L1162.68 378.558Z" fill="#F3B63F"/>
<path d="M1172.68 251.315C1172.68 251.315 1161.29 275.789 1159.31 281.762C1157.32 287.736 1157.32 287.736 1157.32 287.736L1165.67 289.798L1152.41 308.895C1152.41 308.895 1158.17 313.347 1157.61 316.758C1157.04 320.169 1168.42 357.438 1191.47 372.526C1214.52 387.596 1244.1 350.327 1246.95 342.657C1249.8 334.968 1252.08 305.099 1246.66 289.162C1241.25 273.226 1219.91 248.193 1219.91 248.193L1172.68 251.315Z" fill="white"/>
<path d="M1166.08 389.272L1164.42 405.151C1164.42 405.151 1174.3 411.144 1174.3 410.701C1174.3 410.258 1192.24 385.091 1192.24 385.091L1175.36 379.232L1166.08 389.272Z" fill="#F25E7E"/>
<path d="M1164.41 405.17C1164.41 405.17 1134.72 476.528 1125.53 510.849C1116.33 545.151 1104.91 615.873 1106.68 622.232C1108.45 628.592 1133.72 659.116 1133.72 659.116C1133.72 659.116 1161.81 623.658 1163.57 621.192C1165.34 618.725 1160.17 552.589 1160.52 517.941C1160.87 483.273 1174.28 410.739 1174.28 410.739L1164.41 405.17Z" fill="#E72A8B"/>
<path d="M1245.27 630.057C1245.27 630.057 1252.88 580.204 1253.92 560.626C1255 540.392 1255.16 513.374 1255.22 496.185C1255.27 475.643 1255.54 464.119 1255.54 464.119" stroke="#031F43" stroke-width="3.85409" stroke-linecap="round" stroke-linejoin="round"/>
<path d="M1083.71 533.279L1083.04 596.217L1048.79 596.891L1046.08 533.279H1083.71Z" stroke="#031F43" stroke-width="3.85409" stroke-linecap="round" stroke-linejoin="round"/>
<path d="M1200.49 1136.43C1200.49 1136.43 1202.03 1084.22 1200.49 1062.2C1198.95 1040.19 1190.76 922.448 1186.67 893.272C1182.59 864.097 1167.73 777.592 1167.73 777.592" stroke="#031F43" stroke-width="3.85409" stroke-linecap="round" stroke-linejoin="round"/>
<path d="M1167.34 318.3C1160.64 317.26 1151.52 310.553 1151.35 309.012C1151.18 307.47 1164.61 289.915 1164.61 289.915L1155.67 287.853C1155.67 287.853 1162.68 262.955 1169.46 254.611" stroke="#031F43" stroke-width="3.85409" stroke-linecap="round" stroke-linejoin="round"/>
<path d="M1172.33 291.976C1172.33 291.976 1176.11 289.741 1183.51 292.323C1190.91 294.905 1192.45 296.794 1192.45 296.794" stroke="#031F43" stroke-width="3.85409" stroke-linecap="round" stroke-linejoin="round"/>
<path d="M1178.87 291.303C1178.87 291.303 1176.63 295.773 1182.65 298.356C1188.66 300.938 1188.79 295.427 1188.79 295.427" stroke="#031F43" stroke-width="3.85409" stroke-linecap="round" stroke-linejoin="round"/>
<path d="M1162.18 251.199C1161.33 253.994 1162.87 260.141 1173.55 259.293C1184.22 258.426 1196.44 250.352 1201.93 257.231C1207.43 264.111 1201.05 280.452 1204.32 292.843C1207.6 305.234 1215.73 314.773 1205.52 322.211C1201.41 325.217 1220.74 324.813 1220.74 324.813C1220.74 324.813 1223.75 307.296 1232.57 307.296C1238.61 307.296 1241.92 312.557 1242.79 318.068C1243.65 323.579 1238.61 328.455 1238.08 328.281C1237.56 328.108 1242.71 349.44 1251.13 350.307C1259.57 351.175 1270.92 344.449 1268.34 336.895C1265.76 329.341 1260.07 322.269 1261.29 310.919C1262.5 299.568 1267.32 283.034 1260.07 264.457C1252.83 245.881 1246.81 235.725 1233.58 232.102C1220.32 228.48 1202.43 232.796 1202.43 232.796C1202.43 232.796 1193.99 229.173 1184.36 232.449C1174.74 235.706 1165.8 239.155 1162.18 251.199Z" fill="#031F43"/>
<path d="M1243.08 347.377L1181.28 381.197L1196.89 409.177L1259.67 370.135L1243.08 347.377Z" fill="#F3B63F"/>
<path d="M1164.98 370.215C1165.13 371.121 1174.63 380.428 1174.63 380.428C1174.63 380.428 1154.63 396.442 1154.63 395.999C1154.63 395.555 1154.18 375.476 1154.18 375.476L1164.98 370.215Z" fill="#F3B63F"/>
<path d="M1152.2 318.474C1152.2 318.474 1154.65 312.731 1157.44 314.388C1158.52 315.024 1156.61 315.101 1158.54 315.795C1158.9 315.93 1155.11 321.403 1161.04 323.85C1168.75 327.01 1180.87 328.571 1190.68 326.336C1200.49 324.1 1220.18 315.737 1220.18 315.737C1220.18 315.737 1223.81 341.887 1220.36 349.634C1216.91 357.381 1199.7 376.266 1191.93 379.175C1179.68 383.762 1169.08 379.927 1154.63 375.283C1140.17 370.639 1140.87 356.012 1142.76 345.163C1144.63 334.314 1152.2 318.474 1152.2 318.474Z" fill="#031F43"/>
<path d="M1154.05 332.83C1154.05 332.83 1157.78 334.102 1163.76 333.986C1169.81 333.871 1175.9 333.177 1175.9 333.177C1175.9 333.177 1173.07 342.157 1163.33 342.292C1155.57 342.388 1154.05 332.83 1154.05 332.83Z" fill="white"/>
<path d="M1232.98 775.452C1232.98 775.452 1235.04 762.599 1236.2 757.781" stroke="#031F43" stroke-width="3.85409" stroke-linecap="round" stroke-linejoin="round"/>
<path d="M1244.93 781.868C1244.93 781.868 1246.99 769.015 1248.15 764.197" stroke="#031F43" stroke-width="3.85409" stroke-linecap="round" stroke-linejoin="round"/>
<path d="M1257.32 780.732C1257.32 780.732 1259.38 767.878 1260.54 763.061" stroke="#031F43" stroke-width="3.85409" stroke-linecap="round" stroke-linejoin="round"/>
<path d="M1238.61 690.836C1238.61 690.836 1246.49 697.253 1268.94 703.612" stroke="#031F43" stroke-width="3.85409" stroke-linecap="round" stroke-linejoin="round"/>
<path d="M1083.71 533.28C1083.71 535.342 1075.29 537.019 1064.88 537.019C1054.49 537.019 1046.05 535.342 1046.05 533.28C1046.05 531.218 1054.47 529.021 1064.88 529.021C1075.29 529.041 1083.71 531.218 1083.71 533.28Z" fill="white" stroke="#031F43" stroke-width="3.85409" stroke-linecap="round" stroke-linejoin="round"/>
<path d="M1036.71 546.77C1036.71 546.77 1035.24 540.102 1038.17 538.233C1041.08 536.364 1051.74 536.865 1055.04 541.972C1056.71 544.573 1050.45 548.427 1050.45 548.427C1050.45 548.427 1053.57 551.125 1053.36 555.923C1053.15 560.702 1048.98 561.338 1048.98 561.338C1048.98 561.338 1053.98 569.239 1053.15 572.573C1052.32 575.907 1048.98 575.271 1048.98 575.271C1048.98 575.271 1051.89 582.131 1049.41 584.212C1046.9 586.294 1043.55 582.902 1042.09 579.356C1040.62 575.81 1041.84 572.689 1041.84 572.689C1041.84 572.689 1038.17 566.734 1038.37 563.612C1038.58 560.49 1039.19 559.026 1039.19 559.026L1036.71 546.77Z" fill="white" stroke="#031F43" stroke-width="3.85409" stroke-linecap="round" stroke-linejoin="round"/>
<path d="M1090.16 530.988C1090.16 530.988 1096.41 525.727 1108.41 526.151" stroke="#031F43" stroke-width="3.85409" stroke-linecap="round" stroke-linejoin="round"/>
<path d="M1083.67 583.133C1083.67 583.133 1090.69 581.938 1095.14 578.508" stroke="#031F43" stroke-width="3.85409" stroke-linecap="round" stroke-linejoin="round"/>
<path d="M1091.71 590.07C1091.71 590.07 1086.25 590.937 1084.59 590.031" stroke="#031F43" stroke-width="3.85409" stroke-linecap="round" stroke-linejoin="round"/>
<path d="M1036.71 546.77C1035.73 547.309 1046.27 549.718 1050.45 548.427" stroke="#031F43" stroke-width="3.85409" stroke-linecap="round" stroke-linejoin="round"/>
<path d="M1039.33 558.719C1038.35 559.258 1046 561.744 1050.18 560.472" stroke="#031F43" stroke-width="3.85409" stroke-linecap="round" stroke-linejoin="round"/>
<path d="M1041.83 572.729C1041.83 572.729 1046.48 575.33 1048.98 575.311" stroke="#031F43" stroke-width="3.85409" stroke-linecap="round" stroke-linejoin="round"/>
<path d="M693.174 198.496C693.174 198.496 702.308 221.081 702.077 230.215C701.845 239.349 696.141 268.544 693.174 277.659C690.206 286.793 686.795 294.771 680.166 298.876C673.537 302.981 674.925 302.749 675.156 308.222C675.387 313.695 672.188 335.143 672.188 335.143L654.402 360.927L608.095 296.371C608.095 296.371 607.863 291.572 612.199 290.204C616.535 288.836 621.102 286.331 621.102 286.331V267.619C621.102 267.619 610.831 243.897 617.46 239.33C624.07 234.763 628.637 238.193 628.637 238.193C628.637 238.193 621.989 212.429 636.827 208.093C651.646 203.757 693.174 198.496 693.174 198.496Z" fill="white"/>
<path d="M642.032 1128.39L639.43 1155.39C639.43 1155.39 676.815 1157.99 685.66 1157.99C694.505 1157.99 702.271 1161.63 717.861 1163.7C733.451 1165.78 788.487 1163.18 788.487 1163.18C788.487 1163.18 787.447 1144.48 781.222 1139.8C774.998 1135.12 731.427 1119.97 723.604 1117.95C715.78 1115.93 642.032 1128.39 642.032 1128.39Z" fill="#F3B63F"/>
<path d="M714.31 582.056C714.31 582.056 713.5 592.886 715.909 600.112C718.318 607.338 733.561 653.087 732.771 709.26C731.962 765.433 724.427 951.027 725.255 981.918C726.084 1012.81 719.417 1063.72 715.235 1071.24C711.053 1078.75 709.396 1082.91 709.396 1082.91L723.579 1117.97C723.579 1117.97 706.043 1122.15 694.365 1126.31C682.687 1130.47 639.271 1133.83 639.271 1133.83C639.271 1133.83 633.432 1101.28 633.432 1084.57C633.432 1067.88 639.271 877.568 637.613 856.698C635.956 835.828 625.088 569.568 625.088 569.568L714.31 582.056Z" fill="#031F43"/>
<path d="M650.163 1101.01C650.163 1101.01 679.243 1091.91 689.803 1090.43C701.693 1088.77 709.401 1082.89 709.401 1082.89" stroke="white" stroke-width="3.85409" stroke-linecap="round" stroke-linejoin="round"/>
<path d="M723.523 1128.58C723.523 1128.58 728.283 1121.84 738.535 1122.82" stroke="white" stroke-width="3.85409" stroke-linecap="round" stroke-linejoin="round"/>
<path d="M733.776 1133.09C733.776 1133.09 738.536 1126.35 748.788 1127.33" stroke="white" stroke-width="3.85409" stroke-linecap="round" stroke-linejoin="round"/>
<path d="M745.528 1136.35C745.528 1136.35 750.288 1129.61 760.54 1130.59" stroke="white" stroke-width="3.85409" stroke-linecap="round" stroke-linejoin="round"/>
<path d="M585.028 1148.01C585.028 1148.01 590.597 1164.76 596.841 1174.62C603.065 1184.49 607.748 1200.6 607.748 1203.7C607.748 1206.8 590.096 1212.53 582.292 1213.05C574.487 1213.57 548.009 1207.84 541.265 1199.54C534.52 1191.23 531.398 1183.45 528.797 1181.37C526.195 1179.29 519.971 1170.98 519.971 1170.98C519.971 1170.98 521.012 1139.82 522.052 1137.74C523.093 1135.66 561.518 1129.43 571.385 1133.06C581.251 1136.68 585.028 1148.01 585.028 1148.01Z" fill="#F3B63F"/>
<path d="M669.336 741.537C668.507 745.719 645.961 841.705 640.95 869.242C635.94 896.78 596.705 1072.91 596.705 1072.91C596.705 1072.91 599.21 1100.45 598.382 1107.14C597.553 1113.82 585.856 1123 585.856 1123L585.027 1148.03C585.027 1148.03 569.996 1138.86 554.985 1140.51C539.954 1142.19 526.599 1153.87 520.76 1141.34C514.921 1128.82 524.942 1103.78 524.942 1103.78C524.942 1103.78 527.447 1083.74 527.447 1072.89C527.447 1062.04 535.791 976.078 536.62 935.167C537.449 894.275 554.985 823.321 557.49 804.127C559.995 784.934 553.308 659.734 552.48 638.035C551.651 616.337 564.157 579.607 564.157 579.607L654.189 558.525" fill="#031F43"/>
<path d="M669.336 741.537C668.507 745.719 645.961 841.705 640.95 869.242C635.94 896.78 596.705 1072.91 596.705 1072.91C596.705 1072.91 599.21 1100.45 598.382 1107.14C597.553 1113.82 585.856 1123 585.856 1123L585.027 1148.03C585.027 1148.03 569.996 1138.86 554.985 1140.51C539.954 1142.19 526.599 1153.87 520.76 1141.34C514.921 1128.82 524.942 1103.78 524.942 1103.78C524.942 1103.78 527.447 1083.74 527.447 1072.89C527.447 1062.04 535.791 976.078 536.62 935.167C537.449 894.275 554.985 823.321 557.49 804.127C559.995 784.934 553.308 659.734 552.48 638.035C551.651 616.337 564.157 579.607 564.157 579.607L654.189 558.525" stroke="white" stroke-width="1.92705" stroke-miterlimit="10"/>
<path d="M510.682 517.867C510.682 517.867 519.219 562.324 517.427 576.7C515.635 591.076 524.171 635.533 527.756 651.238C531.34 666.963 540.32 710.071 540.783 720.843C541.226 731.615 543.037 754.065 544.367 760.367C545.716 766.649 560.535 786.42 565.025 787.307C569.515 788.212 578.495 788.656 583.428 786.864C588.361 785.071 593.314 781.93 593.314 781.93C593.314 781.93 600.059 784.185 601.851 783.279C603.643 782.374 597.804 752.292 596.917 744.218C596.012 736.144 582.542 716.372 578.957 710.533C575.373 704.694 566.393 681.339 565.487 676.405C564.582 671.472 560.13 614.142 558.531 594.082C556.931 574.021 556.045 538.544 556.045 538.544L510.682 517.867Z" fill="white" stroke="#031F43" stroke-width="3.85409" stroke-linecap="round" stroke-linejoin="round"/>
<path d="M593.314 781.91C593.314 781.91 588.477 770.347 586.666 763.179C584.873 756.01 584.873 750.98 584.873 750.98" stroke="#031F43" stroke-width="3.85409" stroke-linecap="round" stroke-linejoin="round"/>
<path d="M533.652 1128.2C533.652 1128.2 572.829 1121.61 585.875 1122.98" stroke="white" stroke-width="3.85409" stroke-linecap="round" stroke-linejoin="round"/>
<path d="M548.144 1113.36C548.144 1113.36 571.075 1101.11 578.976 1080.95" stroke="white" stroke-width="3.85409" stroke-linecap="round" stroke-linejoin="round"/>
<path d="M550.342 1150.09C550.342 1150.09 565.836 1147.34 576.184 1150.79" stroke="white" stroke-width="3.85409" stroke-linecap="round" stroke-linejoin="round"/>
<path d="M553.789 1160.44C553.789 1160.44 569.283 1157.69 579.631 1161.13" stroke="white" stroke-width="3.85409" stroke-linecap="round" stroke-linejoin="round"/>
<path d="M556.986 1170.56C556.986 1170.56 572.48 1167.8 582.828 1171.25" stroke="white" stroke-width="3.85409" stroke-linecap="round" stroke-linejoin="round"/>
<path d="M602.988 318.359C602.988 318.359 543.847 343.257 535.849 351.717C527.852 360.157 503.841 430.86 496.711 453.542C489.581 476.223 481.141 518.464 481.141 518.464C481.141 518.464 507.83 523.802 522.495 530.026C537.179 536.25 556.739 546.04 556.739 546.04C556.739 546.04 551.844 587.394 558.512 594.062C565.179 600.729 597.207 597.184 619.425 592.289C641.644 587.394 714.583 585.621 714.583 585.621C714.583 585.621 732.37 574.946 735.491 568.278C738.613 561.61 735.048 480.231 735.048 480.231L759.502 475.78C759.502 475.78 747.497 387.733 738.151 372.606C728.805 357.478 686.12 327.243 679.453 325.027C676.832 324.16 664.499 353.567 650.47 352.41C628.772 350.637 602.988 318.359 602.988 318.359Z" fill="#E72A8B"/>
<path d="M556.74 546.039C556.74 546.039 566.53 493.566 566.087 457.106C565.643 420.646 559.419 387.732 559.419 387.732" stroke="#031F43" stroke-width="3.85409" stroke-linecap="round" stroke-linejoin="round"/>
<path d="M728.843 391.277L735.068 480.211" stroke="#031F43" stroke-width="3.85409" stroke-linecap="round" stroke-linejoin="round"/>
<path d="M675.716 269.815C680.514 269.391 685.023 266.539 685.023 266.539L678.972 244.34C678.972 244.34 680.475 231.409 695.256 230.908" stroke="#031F43" stroke-width="3.85409" stroke-linecap="round" stroke-linejoin="round"/>
<path d="M684.522 280.935L664.384 277.408C664.384 277.408 664.134 287.178 671.264 288.855C678.394 290.551 684.522 280.935 684.522 280.935Z" stroke="#031F43" stroke-width="3.85409" stroke-linecap="round" stroke-linejoin="round"/>
<path d="M620.756 275.076L617.75 305.774" stroke="#031F43" stroke-width="3.85409" stroke-linecap="round" stroke-linejoin="round"/>
<path d="M616.015 276.812C618.905 278.565 622.644 277.062 623.588 273.805C624.224 271.551 624.629 269.181 623.954 267.986C622.451 265.326 616.747 262.301 617.768 256.481C618.79 250.662 623.665 244.958 626.363 252.011C629.061 259.064 630.352 260.374 633.801 258.119C637.251 255.865 630.41 228.404 636.788 222.604C643.167 216.803 654.768 224.068 661.532 224.319C668.296 224.569 676.794 229.734 688.067 218.403C699.34 207.053 699.051 204.355 700.439 196.165C701.845 187.975 701.653 181.288 701.653 181.288C701.653 181.288 686.005 183.735 670.839 177.973C655.673 172.212 624.648 172.327 610.465 188.283C596.282 204.239 595.53 208.941 597.361 222.719C599.172 236.479 599.693 238.695 599.288 243.647C598.883 248.6 601.716 261.954 607.093 268.66C610.407 272.784 613.529 275.289 616.015 276.812Z" fill="#031F43"/>
<path d="M697.682 202.562C697.682 202.562 705.371 209.249 706.643 225.244C707.915 241.238 699.744 267.754 695.89 260.47C695.485 259.68 697.22 216.283 692.383 209.268C687.527 202.273 697.682 202.562 697.682 202.562Z" fill="#031F43"/>
<path d="M696.777 255.748C696.777 256.692 692.056 287.795 682.633 297.546C669.49 311.112 656.714 308.144 649.95 303.828C639.583 297.237 631.412 283.709 631.412 283.709" stroke="#031F43" stroke-width="3.85409" stroke-linecap="round" stroke-linejoin="round"/>
<path d="M685.619 244.553C685.619 244.553 690.514 246.769 696.275 244.553" stroke="#031F43" stroke-width="3.85409" stroke-linecap="round" stroke-linejoin="round"/>
<path d="M656.075 244.996C656.075 244.996 660.97 247.212 666.732 244.996" stroke="#031F43" stroke-width="3.85409" stroke-linecap="round" stroke-linejoin="round"/>
<path d="M619.135 293.789L609.943 296.853L651.182 350.907L628.057 382.394L590.731 324.718L606.051 292.401L619.694 286.562L619.135 293.789Z" fill="#E72A8B" stroke="#031F43" stroke-width="3.85409" stroke-miterlimit="10" stroke-linecap="round" stroke-linejoin="round"/>
<path d="M651.184 350.907C651.512 349.866 670.243 319.438 670.243 319.438L671.168 305.91L675.06 304.041L684.021 328.649L679.55 382.163L651.184 350.907Z" fill="#E72A8B" stroke="#031F43" stroke-width="3.85409" stroke-miterlimit="10" stroke-linecap="round" stroke-linejoin="round"/>
<path d="M651.298 353.43L641.277 367.17L647.232 379.503L656.713 379.734L662.88 365.84L651.298 353.43Z" fill="#45D62F"/>
<path d="M656.596 377.21C656.596 377.21 659.679 458.242 662.994 493.777C666.308 529.311 678.295 582.633 678.295 582.633L661.761 604.948L637.384 582.209C637.384 582.209 634.493 530.14 635.726 484.681C636.96 439.222 647.134 376.979 647.134 376.979L656.596 377.21Z" fill="#45D62F"/>
<path d="M720.132 503.953C720.132 503.953 710.497 499.675 708.088 503.683C705.679 507.691 708.088 510.909 709.417 512.779C710.747 514.648 718.513 518.926 718.513 518.926L720.132 503.953Z" fill="white" stroke="#031F43" stroke-width="3.85409" stroke-linecap="round" stroke-linejoin="round"/>
<path d="M717.455 472.367C717.185 473.697 713.177 539.255 713.177 539.255L749.29 546.212L765.882 477.994L717.455 472.367Z" fill="white" stroke="#031F43" stroke-width="3.85409" stroke-linecap="round" stroke-linejoin="round"/>
<path d="M764.745 508.54C764.34 505.765 762.085 503.606 759.291 503.337C753.76 502.797 743.123 502.026 741.639 505.572C739.327 511.103 745.166 513.685 745.166 513.685C745.166 513.685 732.023 511.758 731.58 517.288C731.195 522.029 734.779 525.652 734.779 525.652C734.779 525.652 727.61 523.802 726.396 528.889C725.433 532.917 727.533 535.422 727.533 535.422C727.533 535.422 723.833 538.679 725.626 542.591C727.398 546.464 740.136 549.277 747.999 549.913C755.861 550.549 762.162 543.304 763.434 539.527C764.706 535.75 764.07 529.14 764.07 529.14C764.07 529.14 766.595 526.307 767.211 520.95C767.847 515.593 765.284 512.182 765.284 512.182L764.745 508.54Z" fill="white" stroke="#031F43" stroke-width="3.85409" stroke-linecap="round" stroke-linejoin="round"/>
<path d="M745.163 513.684L756.822 515.244" stroke="#031F43" stroke-width="3.85409" stroke-linecap="round" stroke-linejoin="round"/>
<path d="M734.776 525.633L753.044 526.905" stroke="#031F43" stroke-width="3.85409" stroke-linecap="round" stroke-linejoin="round"/>
<path d="M727.858 535.709L750.828 539.178" stroke="#031F43" stroke-width="3.85409" stroke-linecap="round" stroke-linejoin="round"/>
<path d="M583.95 784.743C583.95 784.743 576.897 772.275 575.49 766.166" stroke="#031F43" stroke-width="3.85409" stroke-linecap="round" stroke-linejoin="round"/>
<path d="M571.71 786.631C571.71 786.631 564.657 774.163 563.25 768.055" stroke="#031F43" stroke-width="3.85409" stroke-linecap="round" stroke-linejoin="round"/>
</svg>
